<?xml version="1.0" encoding="UTF-8"?>
<!DOCTYPE svg PUBLIC "-//W3C//DTD SVG 1.1//EN" "http://www.w3.org/Graphics/SVG/1.1/DTD/svg11.dtd">
<!-- Creator: CorelDRAW 2018 (64-Bit) -->
<svg xmlns="http://www.w3.org/2000/svg" xml:space="preserve" width="8.26772in" height="11.6929in" version="1.1" style="shape-rendering:geometricPrecision; text-rendering:geometricPrecision; image-rendering:optimizeQuality; fill-rule:evenodd; clip-rule:evenodd"
viewBox="0 0 8267.72 11692.91"
 xmlns:xlink="http://www.w3.org/1999/xlink">
 <defs>
  <style type="text/css">
   <![CDATA[
    .fil16 {fill:#373435}
    .fil3 {fill:#02A64C}
    .fil11 {fill:#03A854}
    .fil26 {fill:#0EAA53}
    .fil18 {fill:#272A89}
    .fil17 {fill:#2A358B}
    .fil6 {fill:#2D3393}
    .fil23 {fill:#35308D}
    .fil14 {fill:#4E288E}
    .fil31 {fill:#5B1B6F}
    .fil43 {fill:#635C67}
    .fil30 {fill:#691F8E}
    .fil44 {fill:#6ACC9B}
    .fil40 {fill:#90DCB2}
    .fil20 {fill:#92168E}
    .fil42 {fill:#9B98A7}
    .fil24 {fill:#A01D5A}
    .fil34 {fill:#A29B27}
    .fil32 {fill:#A9A05B}
    .fil39 {fill:#AD116D}
    .fil28 {fill:#B5148A}
    .fil19 {fill:#B91777}
    .fil25 {fill:#C7167A}
    .fil22 {fill:#C80678}
    .fil41 {fill:#CE604C}
    .fil8 {fill:#D41384}
    .fil37 {fill:#D4D224}
    .fil13 {fill:#D60884}
    .fil15 {fill:#DB0C8B}
    .fil29 {fill:#DCCF60}
    .fil27 {fill:#DDAD2E}
    .fil5 {fill:#EA018D}
    .fil0 {fill:#EB058C}
    .fil33 {fill:#ECFFF4}
    .fil36 {fill:#ED90CA}
    .fil38 {fill:#F30DA8}
    .fil9 {fill:#F4EA0F}
    .fil35 {fill:#F5D14C}
    .fil7 {fill:#F9FAFB}
    .fil10 {fill:#FBEA03}
    .fil45 {fill:#FBFAD2}
    .fil2 {fill:#FBFEFD}
    .fil21 {fill:#FCFEEB}
    .fil1 {fill:#FDD605}
    .fil12 {fill:#FDF402}
    .fil4 {fill:#FEF101}
   ]]>
  </style>
 </defs>
 <g id="Layer_x0020_1">
  <metadata id="CorelCorpID_0Corel-Layer"/>
  <g id="_2602097365696">
   <path class="fil0" d="M1772.93 8272.41c-40.38,107.93 -444.93,307.36 -536.72,354.19 -311.13,158.74 -403.17,87.06 -560.21,-147.52 -415.33,-620.43 -533.94,-2112.35 75.47,-1872.17 206.15,81.26 349.27,254.78 454.19,433.75 149.73,255.52 49.94,498.02 98.02,791.75 51.01,311.41 33.31,140.7 469.26,439.99zm5325.86 -950.54l16.91 -39.59c-24.61,-54.43 -12.27,-187.73 -8.9,-271.51 207.37,-102.05 711.15,-408.42 869.04,75.56 234.52,718.93 -549.07,2206.36 -1351.81,1648.06 -140.52,-97.74 -323.87,-125.17 -510.07,-164.61 10.96,-7.63 15.59,-12.05 39.81,-23.12l376.33 -126.28c134.07,-44.49 295.92,-83.72 425.4,-131.95 88.94,-33.14 92.31,-74.48 94.59,-181.93l48.71 -784.62zm-311.1 -1577.91c71.35,-2.45 170.67,2.21 244.21,4.38 235.19,6.96 461.05,279.58 461.05,560.89 0,555.77 -630.36,674.72 -832.68,332.45 -136.8,-231.41 -27.19,-428.98 61.23,-586.33 57.29,-101.91 11.24,-83.52 -27.13,-170.31 -46,-104.1 -23.54,-137.09 93.32,-141.07zm-5303.01 -485.94c236.99,-100.49 83.19,210.02 105.11,284.11 10.11,34.12 65.23,112.98 86.95,174.71 111.43,316.57 -119.09,773.33 -512,663.04 -274.81,-77.15 -322.35,-385 -300.45,-718.85 26.05,-397.2 582.32,-386.87 620.39,-403.02zm1860.59 3900.89c-16.84,-45.67 -18.53,-41.91 -18.53,-108.74l-103.84 35.48c-11.92,-50.35 -18.7,-52.32 -44.32,-91.92 -22.62,-38.06 -765.22,-455.17 -869.39,-517.81 -150.78,-90.69 -294.48,-175.22 -443.66,-260.99 -144.11,-82.81 -308.04,-194.24 -445,-253.46l-47.44 -1392.8c64.93,-45.35 152.49,-89.22 228.76,-108.74l2.12 997.57c-0.17,71.92 -35.96,277.98 46.79,284.09l18.85 -56.87c39.11,-249.9 11.64,-816.8 9.52,-1097.85 -2.03,-270.24 50.05,-200.24 137.24,-397.7 44.14,-100.03 108.61,-359.53 50.05,-461.36 -47.97,-14.46 -37.97,8.51 -72.65,-92.37 -19.09,-55.56 -20.39,-57.97 -28.04,-117.75 -64.62,14.28 -50.62,-25.35 -71.18,39.7 54.67,-84.39 91.83,-114.4 100.69,-176.07 14.94,-104.17 0.46,1.27 -1.88,-37.34l-2.12 -14.17c-8.62,-128.76 -58.45,-217.15 -172.81,-244.49l-178.8 -3.37 -6.08 -173.46 14.5 -56.94c380.01,236.05 1128.58,597.68 1567.36,842.24 111.41,62.1 429.97,272.47 518.04,289.47 36.25,34.89 25.53,-10.3 35.11,83.82l-19.58 260.61c1.29,-267.26 3.37,-191.03 40.27,-214.98l26.4 -50.57c455.41,62.76 165.09,84.76 669.74,-31.54 6.63,204.79 -83.47,317.29 35.22,460.81 10.67,-78.72 21.13,-179.02 23.71,-256.09 1.99,-58.71 8.51,-222.05 34.76,-243.29l2713.79 -807.85 12.6 399.5c-312.83,12.95 -461.99,-88.98 -606.43,63.61 -65.67,69.41 -47.16,44.73 -135.12,93.07l-1.91 28.28c23.12,3.02 31.48,1.56 58.43,8.27 37.41,9.32 37.43,16.41 42.72,19.56 12.49,116.42 116.68,102.74 35.04,293.73 -52.04,121.71 -79.54,161.74 -78.31,330.63 2.52,345.43 225.79,447.54 296.88,518.34l-42.79 1073.65 -205.03 75.95c-53.74,73.35 -165.13,91.74 -255.95,106.42 -105.83,17.09 -10.41,-23.49 -112,38.48 88.79,0.31 36.84,12.41 59.17,27.52l590.81 -197.16 46.24 -1083.19 182.61 7.79 -50.13 1202.04 -2583.22 828.94c105.52,-13.74 18.31,-15.4 54.25,49.11 -76.08,-6.82 -49.31,2.3 -99.11,18.05l-89.01 13.93c-47.01,10.17 -68.05,40.34 -96.97,54.58l28.42 38.43c97.39,-13.63 1271.62,-427.02 1459.65,-476.58 203.52,-53.66 681.72,5.51 830.76,96.31 595.19,362.59 876.47,249.22 1314.27,-230.3 440.56,-482.54 607.83,-1455.06 224.02,-1807.5 -92.31,-84.76 -210.98,-114.1 -383.72,-118.45 209.95,-574.21 -48.13,-827.41 -388.49,-1065.62 -9.91,-577.84 168.74,-596.08 -402.5,-422.27l-2424.85 741.57c-108.85,35.55 -317.62,127.59 -411.48,82.36 -4.16,1.31 -2.52,7.13 -46,-1.29 -76.37,-14.77 -45.76,-28.09 -107.54,36.77 -121.19,-25.92 -86.52,-6.12 -111.04,-54.81 -89.99,-2.8 -637.36,-409.5 -772.33,-438.37 -109.57,-23.41 -102.04,-45.13 -182.8,-87.28 -38.92,-20.3 -58.47,-21.76 -87.52,-36.35 -67.7,-34 -59.56,-0.39 -55.04,-69.87 -100.78,-1.2 -316.61,-177.2 -403.54,-181.76 -72.87,-33.2 -101.54,-58.31 -169.86,-90.17 -56.74,-26.47 -97.43,-49.61 -137.63,-84.26 -54.27,-21.65 -107.69,-62.93 -151.94,-89.05 -50.55,-29.83 -107.01,-62.5 -152.47,-84.57 -9.58,-81.83 -6.17,-94.83 20.24,-165.07 90.04,-9.03 32.9,-3.17 55.04,15.81l37.19 1.07c30.8,-58.15 19.38,-34.34 10.02,-110.95 22.29,-55.56 5.97,-24.52 27.39,-46.81 26.62,4.96 20.85,-1.29 49.48,12.43 39.11,18.72 12.14,6.65 35,32.96 126.19,71.48 259.98,168.7 384.51,251.19 84.68,56.09 323.63,224.74 399.37,247.67l-0.2 -53.92c128.69,-32.44 236.55,-106.4 349.71,-136.45 80.54,-21.39 237.73,98.5 318.98,136.43 581.41,271.36 1421.7,322.06 2054.64,163.21 141.51,-35.52 242.98,-82.43 371.91,-118.1 51.84,28.15 210.57,169.57 242.04,211.9 -3.19,3.17 -8.05,7.04 -10.3,8.7 -2.23,1.66 -7.68,6.43 -10.5,8.4l-180.31 79.54c-66.7,25.81 -140.48,49.33 -205.62,71.38 -67.16,22.73 -147.11,49 -222.86,75.16 -64.9,22.4 -150.54,38.32 -209.67,65.51 24.5,-1.29 55.76,-4.15 79.43,-0.44 42.5,6.67 30.1,6.78 52.04,20.21l-8.57 -12.97c18.09,-67.22 -31.48,-8.44 28.94,-33.42 45.15,-18.68 40.97,-42.63 30.78,18.61l1635.24 -571.15 79.08 89.12 -3.13 -167.58c-282.25,6.96 -765.35,366.12 -904.95,254.95 -57.73,-45.96 -185.63,-161.79 -212.99,-220.87 211.66,-204.92 287.02,-250.14 431.8,-575.3 210.22,-472.12 84.74,-670.17 143.72,-872.12 176.46,-80.91 387.49,-83.47 566.73,-417.89 223.39,-416.82 -18.94,-1063.24 -728.78,-1061.9 -334.77,0.63 -471.13,213.63 -610.63,374.01 -96.12,-23.58 -212.19,-86.69 -324.07,-124.73 -55.74,-18.94 -113.05,-37.34 -166.55,-52.13 -77.59,-21.41 -126.28,-17.87 -157.45,-67.26 -36.14,59.54 -52.5,103.78 -57.22,186.77 278.18,16.76 635.19,244.97 760.87,262.87 152.81,-148.62 207.83,-358.66 464.05,-411.09 580.69,-118.87 901.26,531.8 627.8,887.74 -188.56,245.43 -411.61,226.75 -549.17,315.32 -46.09,234.98 114.08,868.18 -466.74,1372.57 -394.27,342.38 -802.28,377.45 -1446.9,331.38 -458.41,-32.79 -1037.45,-155.03 -1370.31,-444.76 -138.56,-120.57 -302.63,-295.31 -385.3,-521.06 -106.62,-291.24 -40.3,-508.21 -30.49,-805.27 -196.57,-135.51 -446.57,-93.12 -621.37,-303.25 -152.94,-183.83 -105.33,-487.81 31.17,-691.74 99.53,-148.72 319.11,-336.47 625.44,-258.82 281.57,71.4 417.61,402.12 491.91,421.9 61.73,16.45 403.94,-198.32 685.22,-215.31 14.07,-30.62 -28.2,-13.61 31.98,-28.89l47.67 -100.74 12.75 -53.9c-337.26,18.05 -611.85,187.01 -743.3,208.25 -120.13,-348.55 -882.81,-678.05 -1288.66,-71.46 -237.1,354.39 -239.13,802.17 160.43,1051.82 116.79,72.95 298.63,96.71 372.87,146.32 -10.87,430.3 -24.59,722.85 235.52,1059.72 52.52,68.03 159.2,181.67 186.15,255.25l-328.14 163.3c-77.59,-48.39 -127.7,-91.35 -196.02,-136.78l-382.96 -264.77c-67.85,-50.44 -127.64,-94.63 -247.58,-67.66l7.46 153.52c-44.21,-22.07 -82.19,-60.66 -113.09,-20.89 -19.62,25.22 -32.79,132.49 -35.5,190.83 -101.11,-20.08 -157.06,-100.17 -166.2,53.66 -6.12,102.96 10.76,207.61 -5.58,311.93 -408.9,21.76 -654.05,258.31 -657.09,671.96 -3.48,475.43 158.96,691.44 580.97,769.81l9.95 253.92c-109.2,-74.02 -303.56,-408.46 -667.68,-396.83 -147.15,4.7 -269.04,94.3 -325.39,195.74 -331.75,597.22 44.56,2212.51 680.98,2269.21 151.64,13.5 293.21,-80.83 399.02,-133.98 128.71,-64.64 215.86,-131.57 319.74,-197.75 325.54,-207.35 194.53,-259.61 1000.74,258.56 113.6,73.02 212.56,127.05 337.11,201.51 96.4,57.64 231.72,173.03 329.48,148.62z"/>
   <path class="fil1" d="M4638.86 6461.52c38.17,181.93 12.44,140.55 -32.7,293.45l151.44 -0.2c-5.36,72.95 -17.04,76.43 13.67,128.76 45.22,-10.7 430.01,-229.33 472.89,-65.06l1.14 90.54c-51.52,320.16 12.71,251.07 35.74,429.68 119.13,19.38 195.67,16.08 277.78,81.77 9.82,171.48 -131.4,210.74 -188.32,240.78 -15.59,166.55 105.92,71.64 13.74,262.19 -139.76,44.23 -230.43,65.06 -335.17,27.93l-19.27 22.05c-18.35,23.43 -9.19,12.2 -24.87,33.2 -163.67,219.05 -281.7,150.26 -496.14,214.02l-35.92 471.68c78.01,-1.2 855.21,-255.17 994.05,-299.18l731.91 -229.16c87.15,-27.72 177.88,-65.84 270.15,-75.23l205.03 -75.95 42.79 -1073.65c-71.09,-70.81 -294.37,-172.92 -296.88,-518.34 -1.22,-168.89 26.27,-208.93 78.31,-330.63 81.63,-190.99 -22.56,-177.31 -35.04,-293.73 -100.45,4.79 -1749.78,527.7 -1816.1,569.05l-8.22 96.03z"/>
   <path class="fil1" d="M1866.44 5727.8c58.56,101.83 -5.91,361.33 -50.05,461.36 -87.19,197.46 -139.28,127.46 -137.24,397.7 2.12,281.05 29.6,847.95 -9.52,1097.85 86.47,60.28 1252.5,766.44 1360.3,791.88 59.28,-197.09 6.63,-343.87 62.52,-375.48 -112.28,-28.66 -181.14,-19.71 -293.34,-61.2 -484.13,-179.18 75.43,-244.8 99.83,-323.11 -16.97,-200.33 -283.65,-59.61 -288.31,-141.55 -78.2,-9.47 -170.91,-59.96 -193.24,-136.26 32.02,-53.5 61.29,-66.74 131.31,-90.28l-5.43 -1.09c40.23,-81 26.07,-42 118.74,-72.21l-11.48 -62.5c-53.64,-93.25 -120.9,-80.19 -120.35,-157.04 -95.18,-35.87 -103.03,-142.08 -94.3,-228.07 93.54,-66.02 357.48,-91.48 459.48,129.54 133.31,148.75 134.88,33.8 95.7,-110.31 -29.55,-108.72 -14.76,-242.44 39.27,-331.75 65.97,-1.66 111.01,5.07 156.78,37.74 14.39,-252.63 101.69,-371.74 -69.54,-460.64 -121.8,-63.26 -1075.73,-547.13 -1103.4,-590.79l-206.19 -73.45c-65.45,96.16 38.48,160.8 58.47,299.66z"/>
   <path class="fil2" d="M2602.24 5050.49c35.87,10.85 964.96,543.34 1034.76,640.05 59.87,13.63 108.85,42.52 153.17,100.01 99.94,-0.02 152.86,137.98 299.53,98.79 113.44,-30.34 222.81,-70.5 337.33,-109.59 211.33,-72.12 447.64,-153.69 673.04,-217.5 59.13,-27.19 144.76,-43.11 209.67,-65.51 75.75,-26.16 155.7,-52.43 222.86,-75.16 65.14,-22.05 138.93,-45.57 205.62,-71.38l180.31 -79.54c2.82,-1.97 8.27,-6.74 10.5,-8.4 2.25,-1.66 7.11,-5.54 10.3,-8.7 -31.48,-42.33 -190.2,-183.75 -242.04,-211.9 -128.93,35.68 -230.41,82.58 -371.91,118.1 -632.94,158.85 -1473.24,108.15 -2054.64,-163.21 -81.24,-37.93 -238.43,-157.82 -318.98,-136.43 -113.16,30.06 -221.02,104.01 -349.71,136.45l0.2 53.92z"/>
   <path class="fil3" d="M3791.28 8383.38c-9.43,-330.76 169.44,-604.55 239.72,-888.44 -113.38,79.12 -374.01,575.19 -414.52,789.08 -90.17,475.95 136.28,804.62 166.88,982.06 -181.43,6.65 -81.42,-3.72 -203.92,-44.62 -163.27,-54.54 -398.36,120.79 -515.3,228.7l5.43 117.84c171.19,64.05 662.49,130.85 867.98,123.35 345.93,-12.62 543.91,-71.99 842.72,-132.96 -30.54,-95.59 -118.47,-151.81 -216.32,-186.48 -96.18,-34.1 -252.61,-26.05 -351.7,-41.04 -274.42,-41.45 -288.79,-180.51 -346.19,-431.59 -78.64,-344.02 -135.86,-359.11 159.29,-502.15 171.96,-83.32 316.59,-216.41 394.43,-370.14 -157.59,43.47 -416.56,325.37 -628.5,356.38z"/>
   <path class="fil4" d="M4778.61 839.78l15.4 86.06c1.6,5.71 4.9,22.46 6.17,19.78 1.33,-2.89 4.55,14.06 6.15,21.28 -56.11,-17.22 -97.1,-37.32 -116.64,-47.23l-85.03 -1.56c-85.51,5.95 -7.48,9.45 -37.03,-23.12 -88.31,-67.42 -79.69,-46.88 -169.62,-11.18 -118.74,47.12 -191.43,52.94 -285.48,138.12 -41.5,37.58 -27.93,52.24 -94.74,99.42 -12.89,42.17 -57.14,139.56 -52.19,135.86 1.95,24.7 9.76,86.49 6.32,109.42 -12.78,84.79 -4.22,39.79 -33.62,66.91 31.43,-2.17 36.66,-43.24 53.72,35.46 11.9,54.91 -7.42,55.71 -15.16,77.11 65.8,-22.07 26.76,-21 58.56,15.81 23.8,27.56 12.3,65.06 12.27,65.8 55.76,37.95 24.22,20.5 67.55,61.1 19.09,17.89 46.7,38.13 72.38,54.46 56.2,35.74 43.09,19.32 88.88,40.1 42.79,19.4 43.77,49.76 50.27,25.46 64.29,8.33 203.26,9.74 268.12,4.07l94.72 -30.36c31.63,-15.38 67.96,-35.85 100.27,-47.8l0 -37.04c108.87,0 16.45,-3.06 55.56,18.42 25.99,-85.31 93.06,-131.42 115.1,-193.15 34.98,-97.95 25.09,-211.66 10.37,-312.74 -45.11,-22.97 -43.27,-59.15 -43.46,-60.4 -9.91,-35.46 -25.7,-61.03 -49.96,-95.04 -44.89,-62.89 -27.02,-24.59 -80.81,-79.47l39.35 -30.89c155.26,-106.18 47.38,-73.48 137.52,-118.56l-3.54 -169.27 -12.23 -39.44c-63.17,-1.44 -20.78,-36.31 -49.06,43.6 -35.59,100.51 -14.76,65.78 -82.16,127.64l-47.95 51.36z"/>
   <path class="fil5" d="M3941.14 4234.83c-30.95,4.42 -94.56,39.46 -115.02,55.63 -45.67,36.11 -7.09,-3.59 -42.68,50.64l-33.51 55.8c-35.28,81.35 -31.41,193.22 50.27,271.93 364.58,351.39 1038.32,228.5 1173.03,63.02 195.95,-240.75 -48.96,-440.27 -148.11,-459.96l-252.7 -86.45c17.28,44.14 42.48,75.95 46.79,107.91 12.84,94.85 -14.83,73.8 -39.42,91.87l3.94 0.35 -23.65 45.09 -106.83 29.81 34.56 126.26c76.78,37.67 104.65,15.55 194.42,-1.86 53.99,-108.81 117.73,-45.96 120.53,2.89 4.57,79.12 -67.46,88.13 -67.53,88.18 -90.85,11.59 -154.92,77.79 -294.63,2.41l-76.8 -48.5c-172.2,70.35 -269.76,80.67 -393.15,-43.66 -3.83,-2.45 -77.41,2.23 -23.56,-77.85 11.02,-16.39 42.85,-27.13 67.92,-38.39l49.68 49.59 25.75 45.98 140.57 12.93c31.81,-52.06 45.37,-59.13 61.86,-121.25 -24.83,-50.55 -23.06,-35.63 -58.25,-75.56 -75.54,-18.2 50.68,63.94 -26.51,-13.74 -41.98,-42.26 18.18,54.31 -19.31,-23.21 -30.12,-62.28 12.2,-117.18 14.52,-122.52l30.56 -59.35c-149.45,3.67 -170.01,48.47 -292.73,72.01z"/>
   <path class="fil6" d="M709.62 7356.54c-337.13,159.99 -109.81,1028.02 245.98,878.18 158.87,-66.94 204.37,-350.91 145.6,-553.32 -45.96,-158.26 -197.42,-417 -391.58,-324.86z"/>
   <path class="fil6" d="M7385.28 7491.07c-385.93,158.81 -379.52,1033.01 33.06,854.14 366.11,-158.77 374.21,-1021.72 -33.06,-854.14z"/>
   <path class="fil6" d="M3941.14 4234.83c47.14,-61.19 101.98,-64.27 200.07,-88.37 149.19,-36.66 587.97,-22.09 683.91,125.43 99.16,19.69 344.07,219.2 148.11,459.96 -134.7,165.48 -808.44,288.37 -1173.03,-63.02 -81.68,-78.7 -85.55,-190.57 -50.27,-271.93l33.51 -55.8c35.59,-54.23 -3,-14.53 42.68,-50.64 20.45,-16.17 84.06,-51.21 115.02,-55.63zm-312.92 351.98c39.83,135.54 185.8,241.17 316.29,307.58 478.09,243.22 1340.02,38.68 1204.72,-425.11 -185.91,-637.25 -1710.86,-528.38 -1521.01,117.53z"/>
   <path class="fil6" d="M6077.53 2679.21c131.9,-169.33 338.09,-78.96 405.88,-8.35 123.85,129.02 -27.1,309.31 -141.96,343.04 -42.9,-58.04 -76.13,-97.32 -132.67,-160.76l-131.25 -173.93zm-232.33 18.51c40.44,81.44 129.04,143.06 194.55,212.38 77.98,82.49 105.7,159.88 174.61,233.8 158.5,169.99 411.48,-99.88 466.96,-238.52 102.44,-255.96 -125.5,-431.76 -310.97,-473.61 -233.8,-52.74 -468.75,98.7 -525.15,265.95z"/>
   <path class="fil6" d="M2530.27 2934.14c-126.65,-30.76 -263.55,-166.56 -173.49,-317.86 98.33,-165.17 283.28,-111.67 421.5,-52.87 -34.48,87.94 -179.26,288.18 -248.02,370.73zm-70.61 -570.38c-197,63.02 -396.11,229.16 -283.56,466.94 100.28,211.81 367.63,361.37 480.81,254.16 43.68,-41.39 115.21,-195.82 154.41,-254.47 30.63,-45.85 166.71,-204.53 173.4,-233.16 37.82,-162 -335.47,-294.11 -525.06,-233.47z"/>
   <path class="fil7" d="M2599.46 5341.99c70.46,14.53 178.89,89.4 246.09,132.85l79.27 60.66c134.97,28.87 682.34,435.57 772.33,438.37 105.74,-35.85 60.85,16.65 73.98,-62.65l-83.91 -48.06c-82.44,-20.85 -266.41,-143.72 -359.25,-202.76 -68.73,-43.7 -307.51,-177.51 -347.43,-226.34 -71.29,-22.53 -691.11,-394.38 -728.17,-440.91 -72.67,-26.38 -114.86,-47.38 -153.54,-92.86 -96.49,-29.46 -331.75,-180.69 -402.36,-236.29l-37.19 -1.07 -13.91 90.56 725.71 437.08c55.39,32 199.69,100.4 228.37,151.41z"/>
   <path class="fil8" d="M4508.79 8220.63l-90.26 14.96c0.9,186.33 -60.79,365.18 -29.42,548.29 150.83,19.38 1489.88,-456.41 1771.08,-522.72 -22.33,-15.11 29.62,-27.21 -59.17,-27.52 101.59,-61.97 6.17,-21.39 112,-38.48 90.82,-14.68 202.21,-33.07 255.95,-106.42 -92.27,9.39 -183,47.51 -270.15,75.23l-731.91 229.16c-138.84,44.01 -916.04,297.98 -994.05,299.18l35.92 -471.68z"/>
   <path class="fil9" d="M3634.33 914.35l99.16 79.47c127.02,2.69 158.24,32.88 269.76,68.75 49.98,-74.09 78.64,-90.63 145.82,-135.51l59.56 -44.34c-27.65,-104.63 -45.72,-73 -104.54,-133.83l-253.88 -14.44c-46.33,-13.72 -48.58,-3.74 -63.04,-56.39 -46.39,-132.06 -211.26,-166.88 -382.13,-141.55 58.93,39.57 134.42,68.82 163.27,141.83 41.17,104.26 -11.33,152.62 66.02,236.01z"/>
   <path class="fil9" d="M3920.89 1754.96c-2.52,70.74 -5.73,111.65 9.93,174.19 24.5,97.74 28.22,60.55 2.58,151.2 -35.68,64.53 0.63,28.5 -64.11,58.65l-47.67 100.74 -8.66 156.93 69.1 -5.69c76.15,-142.27 154.59,-75.54 272.58,-158.29 98.85,-107.86 96.44,-109.61 104.15,-284.76l25.92 -114.6c-95.28,-14.04 -184.82,-84.37 -248.5,-135.8l-5.86 -16.06c-69.69,50.13 -43.11,65.54 -109.46,73.5z"/>
   <path class="fil10" d="M5011.93 1704.79l165.57 4.07c94,-2.06 32.97,-27.56 132.39,-32.5 81.92,-4.07 75.2,16.19 141.88,43.48 115.13,47.14 176.09,23.56 289.57,8.84 5.36,-52.06 16.74,-6.96 -16.93,-62.87 -1.67,-2.76 -6.91,-7.48 -10,-11.51 -5.77,-2.17 -30.73,-10.13 -34.74,-12.38 -58.97,-33.09 0.74,13.39 -24.08,-18.81 -13.78,7.02 32.07,53 -52.76,6.69 -41.54,-22.69 -31.67,-40.33 -43.11,-70.02 -9.87,-46.18 -53,-106.11 -91.39,-132.85 -52.11,-36.29 -104.85,-34.52 -181.54,-51.19 -39.53,72.58 -167.84,58.93 -245.96,56.61 -11.33,74.2 -20.08,98.46 -50.81,149.14 -54.03,89.16 -104.91,120.33 21.92,123.29z"/>
   <path class="fil11" d="M4420.57 7958.94l227.93 -45.65c-47.93,86.54 -112.5,104.65 -135.62,191.73 319.61,105.2 513.81,-291.81 523.87,-423.06 -185.06,-4.16 -588.43,-63.04 -616.19,276.98z"/>
   <path class="fil12" d="M4579.31 1875.08c-2.78,0.42 -48.08,5.36 -48.59,5.49 -35.17,9.32 -29.46,11.35 -41.23,20.19l18.18 99.77c7.37,32.07 41.41,55.54 65.3,81.11 122.78,15.66 229.53,76.98 205.45,205.25l1.46 15.31c104.93,58.97 47.14,117.64 195.45,155.72l-7.61 -55.04 5.73 -74.74c4.72,-82.99 21.09,-127.22 57.22,-186.77 -4.44,-37.84 -2.47,-67.24 -13.85,-99.59 -23.62,-67.29 -0.02,2.93 -38.78,-56.37 -41.78,-20.54 -85.35,-46.05 -123,-76.28 -50.24,-40.4 -35.2,-29.11 -65.27,-95.87 -53.7,0.65 -129.7,39.72 -210.46,61.81z"/>
   <path class="fil12" d="M3549.67 1421.99c-166.42,-12.97 -261.25,-1.18 -353.15,79.62 -4.92,105.72 -5.4,28.33 19.01,58.14 78.66,-3.48 96.29,-20.12 144.68,33.36 109.72,44.36 193,143.7 334,73.65 30.1,-70.2 3.3,-20.3 58.49,-68.97 51.58,-22.44 76.63,-42.94 119.92,-60.68l37.58 -10.37 13.28 -60.64c-78.96,-61.33 25.09,-79.54 -37.3,-225.53l-130.52 3.63 15.38 -13c-73.87,93.56 -94.83,79.12 -151.16,185.21l-70.22 5.56z"/>
   <path class="fil12" d="M4973.56 825.89c24.83,85.09 -56.26,103.53 -88.42,167.95 57.62,54.16 61.93,48.17 103.25,131.25l18.59 38.15 19.54 53.44c65.62,0.33 110.51,-16.56 139.58,-50.33 28.2,-32.72 23.62,-65.56 69.85,-122.28 53.9,-166.44 -22.57,-77.57 166.11,-180.97 23.23,-12.73 9.36,-3.11 32.99,-20.56l32.11 -30.28c21.02,-106.51 32.27,-24.32 57.75,-143.93 -90.65,26.25 -199.08,94.98 -272.03,7.87 -61.73,5.64 -80.06,-7.63 -126.39,17.56 -51.93,73.94 -75.89,23.54 -102.72,126.35l-50.2 5.78z"/>
   <path class="fil12" d="M4486.17 261.52l16.17 1.4c-12.32,103.03 -36.71,65.17 -100.3,139.1 -1.53,1.79 -46.03,60.55 -47.23,62.76 -17.52,32.28 -24.65,64.9 -33.8,84.57 26.36,41.28 38.96,67.42 26.51,126.11 47.01,-18.33 63.83,102.13 66.52,149.8l196.98 13.89c28.15,109.96 13.72,15.77 -43.4,55.85 29.55,32.57 -48.48,29.07 37.03,23.12 4.05,-14.11 -0.5,-49.57 18.53,-72.34 157.37,13.72 127.57,-43 103.51,-182.89 -21.15,-24.52 -101.48,-86.12 -105.96,-168.85 -3.54,-65.27 45.22,-189.46 7.22,-249.17 -72.87,-45.5 -22.22,-38.87 -78.95,-83.1 -29.4,41.5 -10.98,49.96 -62.84,99.77z"/>
   <path class="fil6" d="M4234.61 4381.63c91.3,-6.41 17.74,1.29 93.12,39.53l-5.75 107.08 -90.98 50.2 -140.57 -12.93 -25.75 -45.98 -89.49 -8.07 -4.55 74.72c123.4,124.33 220.96,114.01 393.15,43.66l76.8 48.5c139.71,75.38 203.78,9.19 294.63,-2.41 20.78,-45.76 33.2,-56.35 38.24,-111.89l-91.24 20.83c-89.77,17.41 -117.64,39.53 -194.42,1.86 -44.07,-30.21 -21.26,-9.47 -54.38,-46.26l-0.96 -102.11c53.37,-20.26 110.36,-38.74 151.26,-52.78l-3.94 -0.35 12.86 -121.27c-66.32,-37.71 -91.98,-63.46 -172.77,-67.15 -85.64,-3.94 -136.58,7.13 -198.14,43.81l12.86 141.02z"/>
   <path class="fil11" d="M2947.4 7599.79c93.91,45.76 154.87,134.72 272.1,186.17 120.55,52.94 302.18,38.78 358.94,-69.17 -67.79,-51.06 -131.01,-47.41 -191.73,-92.62l201.09 -50.49c-48.48,-250.83 -554.87,-128.14 -640.41,26.1z"/>
   <path class="fil8" d="M1650.78 7741.58c30.43,50.64 1310.12,844.78 1450.83,848.5 11.83,-212.73 88.33,-472.52 -9.17,-488.96 -55.89,31.61 -3.24,178.39 -62.52,375.48 -107.8,-25.44 -1273.83,-731.6 -1360.3,-791.88l-18.85 56.87z"/>
   <path class="fil13" d="M2014.16 5501.59c27.67,43.66 981.6,527.53 1103.4,590.79 171.23,88.9 83.93,208 69.54,460.64l93.16 38.72c19.17,-88.53 10.24,-204.66 13.72,-301.21 4.53,-126.35 16.54,-181.47 -85.59,-233.97l-1247.05 -652.17 -24.41 27.85c-2.54,-5.8 -10.02,14.74 -17.19,19.67 133.68,46.98 47.09,-21.42 94.43,49.7z"/>
   <path class="fil8" d="M4638.86 6461.52l8.22 -96.03c66.32,-41.35 1715.65,-564.26 1816.1,-569.05 -5.3,-3.15 -5.31,-10.24 -42.72,-19.56 -26.95,-6.71 -35.31,-5.25 -58.43,-8.27l1.91 -28.28 -1495.66 462.54c-67.11,22.36 -188.52,55.72 -248.41,83.96 -40.97,19.31 -75.16,39.59 -66.91,94.48 7.13,47.42 51.75,60.88 85.9,80.21z"/>
   <path class="fil6" d="M3845.18 4035.2c124.62,-207.76 -114.01,-522.91 -286.82,-253.55 -50.79,79.21 -57.27,245.3 22.4,311.52 80.92,67.24 226.47,5.27 264.42,-57.97z"/>
   <path class="fil6" d="M4980.56 3975.64c63.46,239.15 393.35,175.08 345.73,-147.35 -14.46,-97.89 -120.16,-191.67 -232.74,-123.05 -60.2,36.69 -145.44,148.07 -112.98,270.39z"/>
   <path class="fil14" d="M3790.17 5790.56l-80.15 -0.94c352.4,259.19 273.78,234.52 719.61,67.22l801.9 -274.81c-21.94,-13.43 -9.54,-13.54 -52.04,-20.21 -23.67,-3.72 -54.93,-0.85 -79.43,0.44 -225.4,63.81 -461.71,145.38 -673.04,217.5 -114.52,39.09 -223.89,79.25 -337.33,109.59 -146.67,39.2 -199.58,-98.81 -299.53,-98.79z"/>
   <path class="fil3" d="M4050.15 6752.08l29 -143.26c28.15,17.59 21.09,1.14 48.91,66.89 13.63,32.22 6.04,34.61 32.02,71.42 183.57,-83.87 31.26,-422.03 -92.62,-475.6 -87.06,93.43 -174.01,251.06 -123,382.48 42.7,110.01 84.19,93.25 105.68,98.07z"/>
   <path class="fil3" d="M4123.03 7367.96l72.03 -133.65c2.54,3.89 5.78,5.73 6.74,13.32 0.98,7.63 5.49,10.35 6.74,13.87l24.24 124.27c211.9,-48.87 120.09,-342.14 38.43,-475.36 -66.48,15.11 -145.29,118.8 -181.73,179.9 -37.6,63.02 -57.09,151.07 -23.91,220.1 33.29,69.32 7.74,30.67 57.46,57.55z"/>
   <path class="fil3" d="M3745.82 7449.46l-36.09 -156.32c96.62,35.81 59.54,66.13 151.94,69.5 -0.33,-217.67 -162.27,-326.54 -365.35,-348.68 -2.43,224.7 20.21,403.24 249.5,435.5z"/>
   <path class="fil11" d="M4378.9 7392.65l-4.2 37.8 39.44 -0.96 118.32 -20.41c-36.18,102.22 -63.59,53.07 -77.83,141.03 203.87,73.91 350.56,-183.05 385.3,-308.81 -212.95,-27.87 -401.51,-16.17 -461.03,151.35z"/>
   <path class="fil15" d="M3178.59 8993.72c25.62,39.59 32.4,41.56 44.32,91.92l103.84 -35.48c0,66.83 1.69,63.07 18.53,108.74l71.36 -20.8c-53.24,-47.88 -54.51,-33.03 -53.31,-123.81 0.81,-60.46 14.66,-108.15 18.75,-172.96 63.65,11.61 61.51,20.91 106.37,32.11 73.87,18.46 67.68,-1.55 77.48,-8.38 -25.22,-72.38 -106.07,-79.06 -186.57,-111.21l25.22 -90.89 49.79 16.69 -6.13 -37.78 49.63 3.76 -94.26 -77.09c-8.05,-151.24 62.17,-329.67 -21.39,-333.63 -62.37,22.42 -25.4,-21.28 -42.28,71.77l-61.07 721.71 -100.28 -34.67z"/>
   <path class="fil15" d="M4115.66 9155.25c28.92,-14.24 49.96,-44.41 96.97,-54.58l89.01 -13.93c49.81,-15.75 23.03,-24.87 99.11,-18.05 -35.94,-64.51 51.27,-62.84 -54.25,-49.11l-217.26 62.19 34.76 -494.26c2.36,-26.47 9.5,-62.61 9.19,-79.3l-13.1 -53.04c-75.84,35.09 -61.62,39.48 -71.62,132.21 -242.9,25.37 -219.97,50.05 -223.32,128.07l219.16 -52.74c2.76,207.54 -135.34,71.02 -162.42,183.81 57.73,45.63 67.72,14.22 143.37,-0.09 5.49,169.16 -40.03,192.19 50.4,308.8z"/>
   <path class="fil16" d="M4017.79 1121.35c-61.99,32.77 -14.35,-52.89 -48.67,24.65 21.41,-59.37 -16.65,-50.25 48.67,-24.65zm329.74 -445.89l-2.26 160.28c-86.07,40.19 -69.15,10.61 -166.69,-74.96l-74.5 -11.88c58.82,60.83 76.89,29.2 104.54,133.83l-59.56 44.34c-67.18,44.89 -95.83,61.43 -145.82,135.51 -111.52,-35.87 -142.73,-66.06 -269.76,-68.75l-54.84 23.15 35.57 18.18c32.74,8.69 22.94,5.95 56.63,10.26 161.52,20.71 172.85,-8.53 176.35,115.13l-46.31 18.72c10.5,77.33 15.51,188.25 37.41,254.29 29.4,-27.12 20.85,17.87 33.62,-66.91 3.43,-22.93 -4.37,-84.72 -6.32,-109.42 -4.94,3.7 39.31,-93.69 52.19,-135.86 66.81,-47.19 53.24,-61.84 94.74,-99.42 94.06,-85.18 166.75,-91 285.48,-138.12 89.93,-35.7 81.31,-56.24 169.62,11.18 57.11,-40.07 71.55,54.11 43.4,-55.85l-196.98 -13.89c-2.69,-47.67 -19.51,-168.13 -66.52,-149.8z"/>
   <path class="fil11" d="M3166.74 7994.6c30.71,118.47 293.52,238.45 417.32,111.12l-126.94 -67.55 131.2 -39.31c-8.97,-26.27 -11.2,-53.22 -74.96,-80.08 -113.42,-47.75 -248.5,12.27 -346.63,75.82z"/>
   <path class="fil14" d="M1888.43 4985.81c72.38,21.22 219.73,93.01 295.61,162.73 2.93,2.69 7.94,7.79 11.88,11.7 86.93,4.55 302.77,180.56 403.54,181.76 -28.68,-51.01 -172.98,-119.41 -228.37,-151.41l-725.71 -437.08 13.91 -90.56c-22.14,-18.98 35,-24.85 -55.04,-15.81 -26.4,70.24 -29.81,83.24 -20.24,165.07 45.46,22.07 101.92,54.73 152.47,84.57 44.25,26.12 97.67,67.4 151.94,89.05z"/>
   <path class="fil17" d="M727.76 7244.74c49.76,-79.06 63.09,-136.91 20.52,-246.16 -26.6,-68.31 -85.99,-160.1 -164.96,-119.33 -95.83,49.46 -74.59,400.13 144.44,365.48z"/>
   <path class="fil6" d="M7396 7367.15c99.53,10.67 148.79,-42.31 176.81,-128.73 34.1,-105.28 10.48,-163.41 -27.8,-236.33 -220.32,-33.58 -230.43,231.37 -149.01,365.07z"/>
   <path class="fil16" d="M5006.98 1163.24c-24.91,42.04 1.07,28.17 -36.07,47.01 14.72,101.08 24.61,214.79 -10.37,312.74 -22.05,61.73 -89.11,107.84 -115.1,193.15l73.3 15.49c7.04,1.31 29.53,21.35 40.12,33.71 96.49,-47.05 14.7,20.63 53.07,-60.55 -126.83,-2.95 -75.95,-34.13 -21.92,-123.29 30.73,-50.69 39.48,-74.94 50.81,-149.14 78.11,2.32 206.43,15.97 245.96,-56.61 80.76,-57.38 49.72,-5.95 109.79,-104.02 -158.46,106.62 -127.09,128.89 -345.62,92.42 5.38,-74.83 5.31,-91.72 67.96,-115.8 51.32,-19.73 55.96,-12.8 108.5,-10.41l-71.66 -46.09c56.68,-37.52 76.95,-60.66 80.19,-147.78 -46.22,56.72 -41.65,89.56 -69.85,122.28 -29.07,33.77 -73.96,50.66 -139.58,50.33l-19.54 -53.44z"/>
   <path class="fil16" d="M4036.21 1697.52c63.68,51.43 153.21,121.76 248.5,135.8l-25.92 114.6 27.41 7.68 35.22 -78.57 105.32 3.7c28.04,-60.5 104.15,-11 152.58,-5.65 80.76,-22.09 156.75,-61.16 210.46,-61.81 30.07,66.76 15.03,55.47 65.27,95.87 37.65,30.23 81.22,55.74 123,76.28 11.35,-28.9 -32.13,-15.38 47.51,-28.15l-120.4 -78.88c-25.74,-28.22 -49.3,-56.09 -72.56,-88.15 25.46,-107.6 17.37,-18.77 -42.72,-55.47 -32.31,11.94 -68.64,32.42 -100.27,47.8l-94.72 30.36c-64.86,5.67 -203.83,4.26 -268.12,-4.07 -6.5,24.3 -7.48,-6.06 -50.27,-25.46 -45.78,-20.78 -32.68,-4.35 -88.88,-40.1 -25.68,-16.34 -53.29,-36.57 -72.38,-54.46 -43.33,-40.6 -11.79,-23.15 -67.55,-61.1l-11.48 69.8z"/>
   <path class="fil18" d="M2252.37 4993.16c37.06,46.53 656.87,418.37 728.17,440.91l94.76 7.04c-66.98,-57.72 -145.62,-93.93 -218.92,-142.07 -80.19,-52.67 -146.12,-95.37 -226.75,-144.68 -151.33,-92.53 -301.5,-180.12 -448.5,-276.69 -15.6,22.53 -42.61,-21.83 2.41,34.39 1.4,1.73 31.43,22.94 32.86,24.19 32.55,29.22 28.81,8.4 35.98,56.92z"/>
   <path class="fil6" d="M7682.5 7509.35c106.68,25.7 179.04,-70.09 179.2,-181.49 0.15,-95.59 2.69,-115.48 -53.07,-170.19 -155.03,4.77 -186.7,243.55 -126.13,351.68z"/>
   <path class="fil6" d="M974.55 7333.22c148.99,-67.35 68.93,-387.9 -101.46,-365.98 -63.48,126.35 -25.88,327.11 101.46,365.98z"/>
   <path class="fil11" d="M2920.32 7071.86c24.85,97.91 151.11,244.91 333.83,182.54 -21.11,-54.46 -44.67,-56.7 -91.5,-87.06 64.27,-7.37 81.79,1.44 126.09,-24.7 -81.37,-141.31 -199.21,-118.91 -368.41,-70.79z"/>
   <path class="fil15" d="M3567.85 6530.97l2.39 -63.31c68.78,-5.14 156.23,50.42 276.3,58.6l14.17 -64.94c-119.87,-19.8 -166.64,-42.15 -269.91,-79.82l-1.53 -268.82c-36.9,23.95 -38.98,-52.28 -40.27,214.98l19.58 -260.61c-9.58,-94.13 1.14,-48.93 -35.11,-83.82l-37.93 511.93 72.31 35.81z"/>
   <path class="fil3" d="M2716.58 7901.98c34.06,46.81 91.65,75.69 160.04,97.52 108.61,34.69 109.26,3.54 203.3,-28.5 -38.44,-72.54 -32.79,-27.87 -102.72,-69.02l93.73 -50.44c-45.91,-64.13 -96.64,-86.65 -199.74,-54.07 -63.52,20.08 -127.77,57.29 -154.61,104.52z"/>
   <path class="fil11" d="M4071.91 7751.99l114.51 -19.8c-40.44,80.37 -43.68,27.32 -48.95,112.7 210.85,5.38 279.6,-189.21 272.41,-248.12 -158.81,-12.91 -325.39,-8.29 -337.96,155.22z"/>
   <path class="fil11" d="M4907.89 7082.15c102.46,-4.11 18.02,-21.31 119.7,-45.48l-47.03 114.38c169.11,-3.72 211.35,-127.35 214.07,-300.86 -138.16,-8.42 -298.41,75.27 -286.73,231.96z"/>
   <path class="fil3" d="M3231.75 6915.66l-30.71 -117.27c56.24,26.73 51.95,51.41 117.07,58.89 14.17,-165.72 -136.61,-238.45 -265.08,-266.13 -14.76,158.63 14.79,335.86 178.72,324.51z"/>
   <path class="fil19" d="M3545.3 5678.54c2.34,-0.7 2.34,-7.2 31.41,-2.58 9.19,1.44 21.68,8.95 60.28,14.59 -69.8,-96.71 -998.88,-629.2 -1034.76,-640.05 44.51,62.37 870.11,593.98 943.06,628.04z"/>
   <path class="fil3" d="M4419.1 6759.52l-19.57 71.46 61.2 -7.24c98,-41.63 148.29,-145.23 138.88,-289.54 -155.33,6.56 -287.56,71.44 -288.85,236.88 57.51,-11.33 49.06,-10.35 90.08,-39.9 33.19,28.89 5.49,-21.83 18.26,28.33z"/>
   <path class="fil3" d="M3900.78 7135.61l29.73 -93.23c80.19,53.09 4.09,39.4 98.76,51.32 22.38,-180.93 -60.35,-243.05 -165.52,-315.37 -42.11,45.91 -65.71,119.79 -63.77,198.34 2.63,105.26 49.07,116.48 100.8,158.94z"/>
   <path class="fil11" d="M4843.47 7401.93c22.25,17.57 -6.91,24.65 113.35,13.17 -26.3,45.35 -38.57,48.63 -68.31,91.04 171.61,43.27 277.24,-98.79 293.41,-231.11 -167.65,-13.06 -296.84,-6.76 -338.44,126.89z"/>
   <path class="fil20" d="M3941.14 4234.83c122.72,-23.54 143.28,-68.34 292.73,-72.01l-30.56 59.35c-2.32,5.34 -44.65,60.24 -14.52,122.52 37.49,77.52 -22.67,-19.06 19.31,23.21 77.19,77.68 -49.02,-4.46 26.51,13.74l-12.86 -141.02c61.56,-36.69 112.5,-47.75 198.14,-43.81 80.78,3.7 106.44,29.44 172.77,67.15l-12.86 121.27c24.59,-18.07 52.26,2.98 39.42,-91.87 -4.31,-31.96 -29.51,-63.77 -46.79,-107.91l252.7 86.45c-95.94,-147.52 -534.72,-162.09 -683.91,-125.43 -98.09,24.11 -152.93,27.19 -200.07,88.37z"/>
   <path class="fil11" d="M4422.21 7088.29l121.95 -56.15 -41.28 119.09c153.93,-17.76 221.79,-135.6 207.74,-301.7 -159.81,3.48 -289.77,76.65 -288.42,238.76z"/>
   <path class="fil11" d="M3645.42 6919.79l-23.76 -108.39 108.22 54.75c11.35,-186.31 -109.26,-227.37 -253.35,-277.79 -6.67,170.69 -2.43,325.04 168.89,331.43z"/>
   <path class="fil3" d="M2522.11 6975.09c90.34,84.94 106.57,156.56 289.86,114.45 -11.24,-42.13 3.48,-36.57 -76.34,-78.91l101.76 -59.72c-42.09,-45.87 -75.18,-80.41 -159.64,-84.68 -38.24,-1.93 -80.54,4.94 -112.17,14.02l-80.72 41.1 37.25 53.72z"/>
   <path class="fil3" d="M2589.07 7377.15l-66.63 80.35 125.47 97.34c82.73,-6.35 187.22,23.65 231.94,-60.29l-107.95 -41.89c44.5,-29.88 72.21,-19.1 98.55,-69.23 -41.98,-30.43 -80.35,-50.03 -135.03,-47.21l-108.35 32.81c-44.71,13.52 22.57,2.84 -38,8.11z"/>
   <path class="fil0" d="M4533.22 2253.07l245.19 33.82c24.08,-128.28 -82.67,-189.59 -205.45,-205.25l-131.64 3.44c-6.87,114.23 12.86,121.67 91.9,168z"/>
   <path class="fil6" d="M7115.7 7282.28l-16.91 39.59c6.61,112.22 -12.19,148.33 80.13,191.2 104.41,-58.6 113.95,-171.93 107.1,-313.07 -39.68,-30.93 -26.71,-27.08 -70.04,-49.83 -71.77,35.96 -73.11,43.66 -100.28,132.1z"/>
   <path class="fil17" d="M455.96 7464.8c125.3,-88.59 134.29,-302.75 0,-357.22 -130.05,59.22 -125.63,285.57 0,357.22z"/>
   <path class="fil9" d="M4789.88 1734.76c60.09,36.7 68.19,-52.13 42.72,55.47 23.26,32.07 46.81,59.94 72.56,88.15l120.4 78.88c54.54,28.02 79.67,8.33 88.16,4.11 23.21,-83.41 26.03,2.41 -2.76,-86.8 -37.95,-32.51 -49.87,-39.68 -78.03,-102.88 60,-37.12 15.53,-3.83 68.88,-19.95l75.69 -42.9 -165.57 -4.07c-38.37,81.18 43.42,13.5 -53.07,60.55 -10.59,-12.36 -33.07,-32.4 -40.12,-33.71l-73.3 -15.49c-39.11,-21.48 53.31,-18.42 -55.56,-18.42l0 37.04z"/>
   <path class="fil21" d="M2530.19 7055.87l-8.07 -80.78 -37.25 -53.72 80.72 -41.1c31.63,-9.08 73.93,-15.95 112.17,-14.02 84.46,4.27 117.55,38.81 159.64,84.68l57.97 6.43c-102,-221.02 -365.94,-195.56 -459.48,-129.54 -8.73,85.99 -0.87,192.19 94.3,228.07z"/>
   <path class="fil9" d="M3771.83 1188.94l129.06 -9.69 46.31 -18.72c-3.5,-123.66 -14.83,-94.41 -176.35,-115.13 -33.69,-4.31 -23.89,-1.57 -56.63,-10.26l-35.57 -18.18c-19.86,30.78 -113.72,24.52 -141.94,140.41 33.93,-18.92 7.74,-12.3 51.19,-19.56 65.71,-10.96 153.45,13.06 183.94,51.12z"/>
   <path class="fil22" d="M3687.22 5863.16c-16.58,-37.95 42.15,-20.1 -56.26,-36.8 0,-90.93 -11.09,2.61 27.1,-25.28 -93.62,-63.39 -185.52,-118.26 -289.97,-181.58 -87.54,-53.07 -198.71,-136.65 -292.79,-178.39l-94.76 -7.04c39.92,48.83 278.7,182.63 347.43,226.34 92.84,59.04 276.8,181.91 359.25,202.76z"/>
   <path class="fil9" d="M4286.19 1955.6c-38.72,70.7 0.92,156.53 61.47,220.74 54.03,57.27 19.95,28 79.52,44.56 -9.52,-73.96 -20.59,-96.56 6.47,-155.38 6.08,-21.5 13.48,-45.72 13.74,-46.39 -16.49,-82.31 -25.94,-65.54 -9.17,-154.68l-11.48 16.28 -105.32 -3.7 -35.22 78.57z"/>
   <path class="fil9" d="M5227.42 1237.94c-52.54,-2.39 -57.18,-9.32 -108.5,10.41 -62.65,24.08 -62.58,40.97 -67.96,115.8 218.53,36.46 187.16,14.2 345.62,-92.42 20.8,-21.65 16.15,-17.08 27.37,-59.32l-51.41 -8.73 -145.11 34.26z"/>
   <path class="fil9" d="M4152.82 624.53c5.49,23.63 24.59,89.73 25.77,136.24 97.54,85.57 80.61,115.15 166.69,74.96l2.26 -160.28c-46.57,0.76 -16.78,23.56 -54.03,-16.45 -30.67,-32.9 -16.52,-33.49 -25.75,-62.24 -16.08,-25.55 -5.07,-21.2 -42.39,-20.28l-97.06 -12.89 24.52 60.92z"/>
   <path class="fil9" d="M3787.93 1631.83c-18.66,28.74 -40.89,58.34 -65.06,89.31l-16.3 98.11c119.7,-37.78 0.39,1.14 78.64,-51.28 25.66,-17.21 -39.4,-13.17 41.91,-18.63 140.85,-9.45 24.96,-3.72 73.56,22.66 -7.57,-31.96 -8.73,-12.47 20.19,-17.04l-0.09 -57.24 57.24 -12.07 -3.08 -101.85 -82.29 1.57 -104.74 46.46z"/>
   <path class="fil23" d="M3567.85 6530.97c16.45,13.13 25.11,21.39 40.67,33.01 4.09,3.06 16.67,12.58 20.96,15.42 41.06,27.32 -1.49,0.59 35.31,20.1l181.62 33.1 0.13 -106.33c-120.07,-8.18 -207.52,-63.74 -276.3,-58.6l-2.39 63.31z"/>
   <path class="fil16" d="M4726.7 662.87c24.06,139.89 53.85,196.61 -103.51,182.89 -19.03,22.77 -14.48,58.23 -18.53,72.34l85.03 1.56c78.16,-123.13 -10.52,-68.75 88.92,-79.89l47.95 -51.36c67.4,-61.86 46.57,-27.13 82.16,-127.64 28.28,-79.91 -14.11,-45.04 49.06,-43.6 -24.91,-66.59 20.78,-30.62 -52.72,-64.9 -20.61,24.35 -19.64,-43.99 -31.26,126.72 -40.97,35.31 -50.75,40.99 -90.15,86.19 -29.94,-106.64 -31.35,-75.81 -56.96,-102.31z"/>
   <path class="fil24" d="M4271.21 2135.91c67.55,72.56 29.11,53.88 18.51,79.34 -69.74,-28.39 -16.8,26.06 -38.87,-34.17 -23.12,-63.07 18.13,-42.09 20.37,-45.17zm-116.57 96.77l378.59 20.39c-79.04,-46.33 -98.76,-53.77 -91.9,-168l-7.68 -19.56c-27.06,58.82 -15.99,81.42 -6.47,155.38 -59.57,-16.56 -25.48,12.71 -79.52,-44.56 -60.55,-64.2 -100.19,-150.04 -61.47,-220.74l-27.41 -7.68c-7.7,175.15 -5.29,176.9 -104.15,284.76z"/>
   <path class="fil3" d="M5267.56 7476.02c22.4,67.46 -15.33,7.06 51.36,55.56 -41.34,25.77 -32.42,11.22 -45.15,55.8 130.13,37.67 166.57,-31.7 232.61,-96.57 -64.75,-46.44 -169.92,-84.17 -238.83,-14.79z"/>
   <path class="fil25" d="M1866.44 5727.8c-19.99,-138.86 -123.92,-203.5 -58.47,-299.66l206.19 73.45c-47.34,-71.11 39.24,-2.71 -94.43,-49.7 7.17,-4.93 14.66,-25.46 17.19,-19.67l24.41 -27.85 -170.07 -74.59 2.12 14.17c2.34,38.61 16.82,-66.83 1.88,37.34 -8.86,61.67 -46.02,91.68 -100.69,176.07 20.56,-65.06 6.56,-25.42 71.18,-39.7 7.66,59.78 8.95,62.19 28.04,117.75 34.67,100.89 24.67,77.92 72.65,92.37z"/>
   <path class="fil26" d="M5120.93 7789.59c18.18,59.96 -21.98,20.02 52.43,61.14 -39.37,20.17 -34.19,4.4 -46.68,49.61 79.07,37.67 159.18,24.06 213.39,-53.92 -69.67,-82.4 -120.88,-87.1 -219.14,-56.83z"/>
   <path class="fil21" d="M2610.64 7575.24l37.28 -20.41 -125.47 -97.34 66.63 -80.35 -40.4 7.63 0.04 -36.07c-70.02,23.54 -99.29,36.77 -131.31,90.28 22.33,76.3 115.04,126.79 193.24,136.26z"/>
   <path class="fil27" d="M5252.88 676.2c72.95,87.1 181.39,18.37 272.03,-7.87 -25.48,119.61 -36.72,37.43 -57.75,143.93 25.88,-13.47 50.31,-14.35 86.87,-90.21 21.2,-43.99 27.19,-88.33 27.76,-151.66 -132.41,30.82 24.74,87.78 -328.91,105.81z"/>
   <path class="fil28" d="M1696.48 4664.01c70.61,55.6 305.87,206.82 402.36,236.29 -42.42,-84.74 -50.8,-26.44 -89.27,-114.62 -63.52,1.29 -30.78,7.68 -78.46,-23.06 -121.8,-78.49 -209.91,-95.24 -176.2,-154.79l0 -15.42c-22.88,-16.06 -20.58,-6.34 -48.41,-39.35 9.36,76.61 20.78,52.8 -10.02,110.95z"/>
   <path class="fil29" d="M4267.75 596.77c9.23,28.74 -4.92,29.33 25.75,62.24 37.25,40.01 7.46,17.21 54.03,16.45 12.44,-58.69 -0.15,-84.83 -26.51,-126.11 9.14,-19.67 16.27,-52.28 33.8,-84.57 1.2,-2.21 45.7,-60.97 47.23,-62.76 63.59,-73.94 87.98,-36.07 100.3,-139.1 -89.03,62.52 -185.11,130.55 -200.83,231.02 -13.19,84.28 26.21,96.67 -33.75,102.83z"/>
   <path class="fil16" d="M4927.45 1149.85c6.72,-2.41 15.6,-10.61 20.58,-5.75 5.12,4.99 13.96,-5.25 20.32,-8.25 6.58,-3.11 13.85,-6.41 20.04,-10.76 -41.32,-83.08 -45.63,-77.09 -103.25,-131.25 32.16,-64.42 113.25,-82.86 88.42,-167.95 -90.15,45.08 17.74,12.38 -137.52,118.56l-39.35 30.89c53.79,54.89 35.92,16.58 80.81,79.47 24.26,34.02 40.05,59.59 49.96,95.04z"/>
   <path class="fil16" d="M3755.67 1244.22l130.52 -3.63c62.39,145.99 -41.67,164.19 37.3,225.53l-13.28 60.64c38.24,-14.17 18.46,35.2 36.46,-35.39 17.57,82.91 17.83,42.57 30.19,54.75 7.74,-21.39 27.06,-22.2 15.16,-77.11 -17.06,-78.7 -22.29,-37.63 -53.72,-35.46 -21.9,-66.04 -26.91,-176.96 -37.41,-254.29l-129.06 9.69 -16.17 55.28z"/>
   <path class="fil28" d="M3697.15 5973.87c24.52,48.69 -10.15,28.89 111.04,54.81 61.77,-64.86 31.17,-51.54 107.54,-36.77 43.49,8.42 41.85,2.6 46,1.29 -62.63,-43.86 -62.96,-54.84 -133.41,-76.98l-57.18 -5.01c-13.13,79.3 31.76,26.8 -73.98,62.65z"/>
   <path class="fil29" d="M4967.72 2402.89l7.61 55.04c-148.31,-38.08 -90.52,-96.75 -195.45,-155.72 13.67,86.8 18.68,97.15 88.48,149.75l184.54 62.83c-26.01,-97.28 -5.12,-75.64 -85.18,-111.89z"/>
   <path class="fil30" d="M2098.84 4900.3c38.67,45.48 80.87,66.48 153.54,92.86 -7.17,-48.52 -3.43,-27.69 -35.98,-56.92 -1.43,-1.25 -31.46,-22.46 -32.86,-24.19 -45.02,-56.22 -18,-11.85 -2.41,-34.39 -46,-39.53 -98.96,-77.09 -171.56,-91.98 38.48,88.18 46.85,29.88 89.27,114.62z"/>
   <path class="fil29" d="M3900.7 1772.01c-48.61,-26.38 67.29,-32.11 -73.56,-22.66 -81.31,5.47 -16.26,1.42 -41.91,18.63 -78.24,52.41 41.06,13.5 -78.64,51.28l16.3 -98.11c-34.93,10.04 -33.03,-15.95 -51.3,106.11 62.43,63.89 -11.55,30.38 63.5,77.13 66.57,-129.59 88.59,-122.7 165.61,-132.39z"/>
   <path class="fil29" d="M4486.17 261.52c51.86,-49.81 33.44,-58.28 62.84,-99.77 56.72,44.23 6.08,37.6 78.95,83.1 -1.47,-62.26 -4.31,-55.8 -38.52,-107.97 -39.94,-60.88 -34.06,-48.59 -104.71,-61.58 3,93.34 16.95,89.44 1.44,186.22z"/>
   <path class="fil16" d="M3872.63 1537.12l20.04 48.26 82.29 -1.57 3.08 101.85 52.3 -4.18 5.86 16.06 11.48 -69.8c0.02,-0.74 11.53,-38.24 -12.27,-65.8 -31.8,-36.81 7.24,-37.89 -58.56,-15.81l-41.87 15.6 -24.78 -34.96 -37.58 10.37z"/>
   <path class="fil20" d="M2924.82 5535.5l-79.27 -60.66c-67.2,-43.44 -175.63,-118.32 -246.09,-132.85 -4.53,69.48 -12.67,35.87 55.04,69.87 29.05,14.59 48.61,16.06 87.52,36.35 80.76,42.15 73.24,63.87 182.8,87.28z"/>
   <path class="fil31" d="M2009.57 4785.68c-22.51,-54.2 -199.96,-140.46 -254.67,-177.84 -33.71,59.54 54.4,76.3 176.2,154.79 47.69,30.73 14.94,24.35 78.46,23.06z"/>
   <path class="fil29" d="M4447.39 2019.13c25.31,-11.53 33.91,-10.22 60.29,-18.59l-18.18 -99.77c11.77,-8.83 6.06,-10.87 41.23,-20.19 0.5,-0.13 45.81,-5.07 48.59,-5.49 -48.43,-5.36 -124.54,-54.86 -152.58,5.65l11.48 -16.28c-16.78,89.14 -7.33,72.36 9.17,154.68z"/>
   <path class="fil28" d="M3846.4 6632.6l-181.62 -33.1c22.29,48.02 37.25,54.38 66.91,96.27l94.96 4.16 19.75 -67.33z"/>
   <path class="fil30" d="M3710.02 5789.61l80.15 0.94c-44.32,-57.49 -93.3,-86.38 -153.17,-100.01 -38.61,-5.64 -51.1,-13.15 -60.28,-14.59 -29.07,-4.61 -29.07,1.88 -31.41,2.58 41.08,36.62 118.28,86.69 164.72,111.08z"/>
   <path class="fil29" d="M3360.22 1593.11c-48.39,-53.48 -66.02,-36.83 -144.68,-33.36 -24.41,-29.81 -23.93,47.58 -19.01,-58.14 -58.89,33.44 -78.07,44.08 -69.1,116.66 141.53,-32.83 87.56,-34.04 232.79,-25.16z"/>
   <path class="fil29" d="M3549.67 1421.99l70.22 -5.56c56.33,-106.09 77.28,-91.65 151.16,-185.21 -57.33,7.59 -176.46,118.69 -194.38,143.72 -18.09,25.31 -7.37,12.21 -26.99,47.06z"/>
   <path class="fil32" d="M3882.06 2390.97l-69.1 5.69 8.66 -156.93c-60.18,15.29 -17.91,-1.73 -31.98,28.89 -16.12,91.76 -18.22,161.98 61.3,212.54l31.13 -90.19z"/>
   <path class="fil32" d="M4973.56 825.89l50.2 -5.78c26.84,-102.81 50.79,-52.41 102.72,-126.35 -87.81,20.87 -92.88,13.32 -123.72,75.25l-15.7 -86.01c-1.73,-4.42 -6.21,-10.09 -7.81,-13.59 -1.62,-3.52 -5.97,-8.66 -9.23,-12.8l3.54 169.27z"/>
   <path class="fil16" d="M4689.69 919.66c19.54,9.91 60.53,30.01 116.64,47.23 -1.6,-7.22 -4.81,-24.17 -6.15,-21.28 -1.27,2.69 -4.57,-14.07 -6.17,-19.78l-15.4 -86.06c-99.44,11.13 -10.76,-43.25 -88.92,79.89z"/>
   <path class="fil20" d="M4487.81 4586.73l-34.56 -126.26 106.83 -29.81 23.65 -45.09c-40.91,14.04 -97.89,32.53 -151.26,52.78l0.96 102.11c33.12,36.79 10.3,16.06 54.38,46.26z"/>
   <path class="fil30" d="M4231 4578.44l90.98 -50.2 5.75 -107.08c-75.38,-38.24 -1.81,-45.94 -93.12,-39.53 35.2,39.92 33.43,25 58.25,75.56 -16.5,62.13 -30.06,69.19 -61.86,121.25z"/>
   <path class="fil29" d="M4152.82 624.53l-24.52 -60.92 97.06 12.89 -59.61 -39.16c-5.2,-1.83 -9.95,-3.96 -15.38,-5.12 -119.76,-25.9 -58.95,6.65 -75.27,17.13 18.37,90.34 -6.47,52.94 77.72,75.18z"/>
   <path class="fil33" d="M4447.39 2019.13c-0.26,0.68 -7.65,24.89 -13.74,46.39l7.68 19.56 131.64 -3.44c-23.89,-25.57 -57.92,-49.04 -65.3,-81.11 -26.38,8.38 -34.98,7.07 -60.29,18.59z"/>
   <path class="fil20" d="M4682.23 4584.87l91.24 -20.83c-5.03,55.54 -17.46,66.13 -38.24,111.89 0.07,-0.04 72.1,-9.06 67.53,-88.18 -2.8,-48.85 -66.54,-111.69 -120.53,-2.89z"/>
   <path class="fil34" d="M3752.71 1597.8c0,55.54 -15.2,48.54 35.22,34.04l104.74 -46.46 -20.04 -48.26c-43.29,17.74 -68.33,38.24 -119.92,60.68z"/>
   <path class="fil35" d="M2543.29 7347.61c43,-8.03 56.79,-15.97 87.52,-29.94 69.87,-31.76 49.96,-9.5 65.36,-63.9 -29.57,-65.8 -5.93,-16.97 -45.63,-40.86l11.48 62.5c-92.66,30.21 -78.51,-8.79 -118.74,72.21z"/>
   <path class="fil20" d="M2195.92 5160.24c-3.94,-3.91 -8.94,-9.01 -11.88,-11.7 -75.88,-69.72 -223.23,-141.51 -295.61,-162.73 40.2,34.65 80.89,57.8 137.63,84.26 68.31,31.85 96.99,56.96 169.86,90.17z"/>
   <path class="fil36" d="M1618.45 5085.3l-68.67 -25.7c-24.89,-2.43 -63.81,5.38 -91.33,8.07 2.45,-62.24 2.82,-117.05 -24.89,-159.2l6.08 173.46 178.8 3.37z"/>
   <path class="fil28" d="M3970.65 4586.18l4.55 -74.72 89.49 8.07 -49.68 -49.59c-25.07,11.27 -56.89,22.01 -67.92,38.39 -53.86,80.08 19.73,75.4 23.56,77.85z"/>
   <path class="fil30" d="M1706.49 4553.06c27.83,33.01 25.53,23.3 48.41,39.35 41.89,-40.95 14.31,-17.8 63.46,-40.77 -22.86,-26.31 4.11,-14.24 -35,-32.96 -28.63,-13.72 -22.86,-7.46 -49.48,-12.43 -21.42,22.29 -5.1,-8.75 -27.39,46.81z"/>
   <path class="fil31" d="M3687.22 5863.16l83.91 48.06 57.18 5.01 -170.25 -115.15c-38.19,27.89 -27.1,-65.65 -27.1,25.28 98.41,16.69 39.68,-1.16 56.26,36.8z"/>
   <path class="fil32" d="M5741.34 1728.67c21.04,-9.82 33.01,-11.07 53.46,-25.64 36.57,-26.09 15.18,-6.63 41.19,-44.21l-121.58 -4.53c3.09,4.02 8.33,8.75 10,11.51 33.67,55.91 22.29,10.8 16.93,62.87z"/>
   <path class="fil27" d="M3694.22 1666.77c23.25,18.26 10.65,-25.09 28.66,54.38 24.17,-30.98 46.39,-60.57 65.06,-89.31 -50.42,14.5 -35.22,21.5 -35.22,-34.04 -55.19,48.67 -28.39,-1.22 -58.49,68.97z"/>
   <path class="fil37" d="M5113.71 1961.37c68.62,4.57 48.93,4.38 71.18,-22.44l-1.53 -36.29 -72.41 -28.06c28.79,89.2 25.96,3.39 2.76,86.8z"/>
   <path class="fil34" d="M3920.89 1754.96c66.35,-7.96 39.77,-23.36 109.46,-73.5l-52.3 4.18 -57.24 12.07 0.09 57.24z"/>
   <path class="fil29" d="M4927.45 1149.85c0.2,1.25 -1.64,37.43 43.46,60.4 37.14,-18.83 11.16,-4.96 36.07,-47.01l-18.59 -38.15c-6.19,4.35 -13.45,7.65 -20.04,10.76 -6.37,3 -15.2,13.24 -20.32,8.25 -4.98,-4.85 -13.87,3.35 -20.58,5.75z"/>
   <path class="fil32" d="M5655.59 1623.11l-64.69 -44.56c-4.68,-3.04 -11.24,-6.67 -15.2,-9.19 -4.13,-2.65 -10.61,-6.43 -15.99,-9.58 11.44,29.69 1.57,47.33 43.11,70.02 84.83,46.31 38.98,0.33 52.76,-6.69z"/>
   <path class="fil38" d="M4289.72 2215.25c10.61,-25.46 49.04,-6.78 -18.51,-79.34 -2.23,3.08 -43.49,-17.89 -20.37,45.17 22.07,60.22 -30.86,5.77 38.87,34.17z"/>
   <path class="fil39" d="M3454.37 8679.65l75.71 16.19c-11.79,-96.65 -4.13,-41.5 -32.2,-50.2l-49.63 -3.76 6.13 37.78z"/>
   <path class="fil40" d="M4460.73 6823.74l-61.2 7.24 19.57 -71.46c-21.59,24.3 -11.31,-9.47 -29.29,39.05 -16.12,43.46 -4.72,14.65 -9.45,53.48 23.87,-0.15 30.78,13.54 80.37,-28.3z"/>
   <path class="fil41" d="M3869.28 2139c64.75,-30.14 28.44,5.89 64.11,-58.65l-51.36 4.75 -12.75 53.9z"/>
   <path class="fil42" d="M5372.53 1203.68l51.41 8.73 16.71 -47.84c-54.27,9.6 -40.12,-0.85 -68.12,39.11z"/>
   <path class="fil32" d="M3850.21 734.45c-15.27,-54.93 -26.97,-43.33 -63.04,-56.39 14.46,52.65 16.71,42.68 63.04,56.39z"/>
   <path class="fil32" d="M3733.49 993.81l-99.16 -79.47c26.91,51.71 -17.83,8.55 35.04,53.83 28.18,24.13 36.03,19.3 64.12,25.64z"/>
   <path class="fil31" d="M5222.95 5569.05l59.72 -14.81c10.2,-61.25 14.37,-37.3 -30.78,-18.61 -60.42,24.98 -10.85,-33.8 -28.94,33.42z"/>
   <path class="fil43" d="M3910.21 1526.75l24.78 34.96 41.87 -15.6c-12.36,-12.19 -12.62,28.15 -30.19,-54.75 -18,70.59 1.77,21.22 -36.46,35.39z"/>
   <path class="fil44" d="M4414.14 7429.49l-39.44 0.96 4.2 -37.8c-2.87,4.51 -8.53,5.03 -9.08,13.15 -0.55,8.4 -5.69,11.7 -6.26,15.31 -10.17,64.73 -4.66,-28.74 -1.66,38.52 90.21,-18.22 27.72,-4.99 52.24,-30.14z"/>
   <path class="fil43" d="M5184.89 1938.93l53.48 -12.73c-29.44,-27.43 29.84,-17 -55.01,-23.56l1.53 36.29z"/>
   <path class="fil45" d="M4017.79 1121.35c-65.32,-25.59 -27.26,-34.72 -48.67,24.65 34.32,-77.55 -13.32,8.11 48.67,-24.65z"/>
  </g>
 </g>
</svg>
