<?xml version="1.0" encoding="UTF-8"?>
<!DOCTYPE svg PUBLIC "-//W3C//DTD SVG 1.1//EN" "http://www.w3.org/Graphics/SVG/1.1/DTD/svg11.dtd">
<!-- Creator: CorelDRAW 2018 (64-Bit) -->
<svg xmlns="http://www.w3.org/2000/svg" xml:space="preserve" width="8.26772in" height="11.6929in" version="1.1" style="shape-rendering:geometricPrecision; text-rendering:geometricPrecision; image-rendering:optimizeQuality; fill-rule:evenodd; clip-rule:evenodd"
viewBox="0 0 8267.72 11692.91"
 xmlns:xlink="http://www.w3.org/1999/xlink">
 <defs>
  <style type="text/css">
   <![CDATA[
    .fil5 {fill:#02A64C}
    .fil14 {fill:#03A854}
    .fil31 {fill:#0EAA53}
    .fil21 {fill:#272A89}
    .fil20 {fill:#2A358B}
    .fil7 {fill:#2D3393}
    .fil27 {fill:#35308D}
    .fil17 {fill:#4E288E}
    .fil37 {fill:#5B1B6F}
    .fil50 {fill:#635C67}
    .fil36 {fill:#691F8E}
    .fil51 {fill:#6ACC9B}
    .fil47 {fill:#90DCB2}
    .fil23 {fill:#92168E}
    .fil49 {fill:#9B98A7}
    .fil29 {fill:#A01D5A}
    .fil40 {fill:#A29B27}
    .fil19 {fill:#A9A05B}
    .fil45 {fill:#AD116D}
    .fil34 {fill:#B5148A}
    .fil22 {fill:#B91777}
    .fil30 {fill:#C7167A}
    .fil46 {fill:#C7368A}
    .fil25 {fill:#C80678}
    .fil48 {fill:#CE604C}
    .fil11 {fill:#D41384}
    .fil26 {fill:#D4157C}
    .fil43 {fill:#D4D224}
    .fil32 {fill:#D60476}
    .fil16 {fill:#D60884}
    .fil0 {fill:#D9138E}
    .fil18 {fill:#DB0C8B}
    .fil28 {fill:#DCCF60}
    .fil33 {fill:#DDAD2E}
    .fil9 {fill:#E5038B}
    .fil8 {fill:#EA018A}
    .fil3 {fill:#EA018D}
    .fil1 {fill:#EB058C}
    .fil39 {fill:#ECFFF4}
    .fil42 {fill:#ED90CA}
    .fil35 {fill:#F1008D}
    .fil52 {fill:#F255B3}
    .fil44 {fill:#F30DA8}
    .fil12 {fill:#F4EA0F}
    .fil38 {fill:#F50091}
    .fil41 {fill:#F5D14C}
    .fil10 {fill:#F9FAFB}
    .fil13 {fill:#FBEA03}
    .fil53 {fill:#FBFAD2}
    .fil4 {fill:#FBFEFD}
    .fil24 {fill:#FCFEEB}
    .fil2 {fill:#FDD605}
    .fil15 {fill:#FDF402}
    .fil6 {fill:#FEF101}
   ]]>
  </style>
 </defs>
 <g id="Layer_x0020_1">
  <metadata id="CorelCorpID_0Corel-Layer"/>
  <g id="_2602101541344">
   <path class="fil0" d="M136.64 4143.5l0 250.12 49.82 410.98c213.98,1295.04 1092.82,2389.22 2271.1,2912.62 816.52,362.72 1479.94,334.28 1531.76,358.33l258.27 0c10.11,-4.71 371.73,-32.96 429.99,-41.06 854.46,-118.85 1670.43,-513.16 2256.55,-1094.13 1247.13,-1236.15 1134.82,-2540.37 1181.61,-2643.33l0 -205.43c-11.15,-30.08 -30.2,-367.89 -40.21,-437.14 -20.26,-140.09 -44.7,-277.43 -80.34,-410.04 -201.28,-748.86 -548.98,-1331.86 -1091.76,-1852.43 -519.67,-498.4 -1176.97,-849.59 -1921.83,-1012.98 -176.84,-38.79 -698.28,-118.5 -883.16,-82.68 618.43,45.87 1076.19,170.67 1603.24,445.93 273.28,142.72 574.06,362.73 792.55,568.38 357.89,336.89 640.34,726.4 852.01,1202.1 618.37,1389.72 257.56,3040.75 -815.5,4051.89 -438.94,413.63 -1015.61,785.94 -1772.87,957.68 -1499.37,340.06 -2969.65,-211.43 -3880.68,-1380.85 -739.89,-949.75 -713.93,-1935.1 -740.54,-1997.96z"/>
   <path class="fil1" d="M2831.28 6039.13c-20.18,53.94 -222.37,153.62 -268.25,177.03 -155.5,79.34 -201.5,43.51 -279.99,-73.73 -207.58,-310.09 -266.86,-1055.74 37.72,-935.7 103.03,40.61 174.56,127.33 227,216.79 74.83,127.7 24.96,248.91 48.99,395.71 25.5,155.64 16.65,70.32 234.53,219.91zm2661.85 -475.08l8.45 -19.79c-12.3,-27.2 -6.13,-93.83 -4.45,-135.7 103.64,-51 355.43,-204.13 434.34,37.76 117.21,359.32 -274.43,1102.74 -675.63,823.7 -70.23,-48.85 -161.87,-62.56 -254.93,-82.27 5.48,-3.81 7.8,-6.02 19.9,-11.56l188.09 -63.12c67.01,-22.24 147.9,-41.84 212.61,-65.94 44.45,-16.56 46.13,-37.23 47.27,-90.93l24.35 -392.15zm-155.48 -788.63c35.66,-1.22 85.3,1.1 122.06,2.19 117.55,3.48 230.43,139.73 230.43,280.33 0,277.77 -315.05,337.22 -416.17,166.16 -68.37,-115.66 -13.59,-214.41 30.6,-293.04 28.63,-50.94 5.62,-41.74 -13.56,-85.13 -22.99,-52.03 -11.76,-68.52 46.64,-70.5zm-2650.43 -242.87c118.45,-50.23 41.58,104.96 52.54,142 5.05,17.06 32.6,56.47 43.46,87.32 55.69,158.22 -59.52,386.51 -255.89,331.39 -137.35,-38.56 -161.11,-192.42 -150.17,-359.28 13.02,-198.52 291.05,-193.36 310.07,-201.43zm929.92 1949.65c-8.42,-22.83 -9.26,-20.95 -9.26,-54.35l-51.9 17.73c-5.96,-25.17 -9.35,-26.15 -22.15,-45.94 -11.3,-19.02 -382.45,-227.49 -434.52,-258.8 -75.36,-45.33 -147.18,-87.57 -221.74,-130.44 -72.03,-41.39 -153.96,-97.08 -222.41,-126.68l-23.71 -696.12c32.45,-22.67 76.21,-44.6 114.34,-54.35l1.06 498.59c-0.09,35.94 -17.97,138.93 23.39,141.98l9.43 -28.43c19.55,-124.9 5.81,-408.24 4.76,-548.7 -1.02,-135.06 25.01,-100.08 68.59,-198.77 22.06,-50 54.28,-179.69 25.02,-230.58 -23.98,-7.23 -18.98,4.25 -36.31,-46.17 -9.55,-27.77 -10.19,-28.97 -14.02,-58.85 -32.3,7.14 -25.3,-12.67 -35.57,19.84 27.32,-42.18 45.9,-57.18 50.33,-88 7.46,-52.06 0.23,0.63 -0.94,-18.67l-1.06 -7.08c-4.31,-64.35 -29.21,-108.53 -86.37,-122.2l-89.36 -1.69 -3.04 -86.7 7.25 -28.46c189.93,117.98 564.06,298.72 783.36,420.95 55.68,31.04 214.9,136.18 258.91,144.67 18.11,17.44 12.76,-5.15 17.55,41.89l-9.79 130.26c0.65,-133.58 1.69,-95.48 20.13,-107.45l13.2 -25.28c227.61,31.37 82.51,42.36 334.73,-15.77 3.31,102.35 -41.72,158.58 17.6,230.31 5.34,-39.35 10.56,-89.48 11.85,-127.99 0.99,-29.34 4.25,-110.98 17.37,-121.59l1356.35 -403.76 6.3 199.67c-156.35,6.47 -230.9,-44.47 -303.09,31.8 -32.82,34.69 -23.57,22.36 -67.54,46.52l-0.95 14.13c11.56,1.51 15.73,0.78 29.2,4.13 18.7,4.66 18.7,8.2 21.35,9.78 6.24,58.19 58.31,51.35 17.51,146.81 -26.01,60.83 -39.75,80.83 -39.14,165.25 1.26,172.64 112.85,223.68 148.38,259.07l-21.39 536.61 -102.48 37.96c-26.86,36.66 -82.53,45.85 -127.93,53.19 -52.89,8.54 -5.2,-11.74 -55.98,19.23 44.38,0.15 18.41,6.2 29.57,13.76l295.29 -98.54 23.11 -541.37 91.27 3.89 -25.06 600.77 -1291.08 414.3c52.74,-6.86 9.15,-7.7 27.11,24.55 -38.02,-3.41 -24.64,1.15 -49.54,9.02l-44.48 6.96c-23.5,5.08 -34.02,20.16 -48.47,27.28l14.2 19.21c48.67,-6.81 635.55,-213.42 729.53,-238.19 101.72,-26.82 340.72,2.76 415.21,48.14 297.47,181.22 438.06,124.56 656.87,-115.1 220.19,-241.17 303.79,-727.23 111.96,-903.39 -46.14,-42.36 -105.45,-57.02 -191.79,-59.2 104.94,-286.99 -24.05,-413.54 -194.17,-532.59 -4.95,-288.8 84.33,-297.92 -201.17,-211.05l-1211.93 370.63c-54.4,17.77 -158.74,63.77 -205.66,41.16 -2.08,0.66 -1.26,3.57 -22.99,-0.64 -38.17,-7.38 -22.87,-14.04 -53.74,18.38 -60.57,-12.96 -43.24,-3.06 -55.5,-27.4 -44.98,-1.4 -318.55,-204.67 -386.01,-219.1 -54.76,-11.7 -51,-22.55 -91.37,-43.62 -19.45,-10.15 -29.22,-10.88 -43.74,-18.17 -33.83,-16.99 -29.77,-0.2 -27.51,-34.92 -50.37,-0.6 -158.24,-88.57 -201.69,-90.84 -36.42,-16.6 -50.75,-29.15 -84.89,-45.07 -28.36,-13.23 -48.69,-24.8 -68.79,-42.11 -27.13,-10.82 -53.82,-31.45 -75.94,-44.51 -25.27,-14.91 -53.48,-31.23 -76.2,-42.26 -4.79,-40.9 -3.09,-47.39 10.11,-82.5 45,-4.52 16.44,-1.59 27.51,7.91l18.59 0.54c15.39,-29.06 9.69,-17.17 5.01,-55.45 11.14,-27.77 2.98,-12.26 13.69,-23.4 13.31,2.48 10.42,-0.65 24.73,6.21 19.55,9.36 6.07,3.32 17.49,16.47 63.07,35.73 129.94,84.31 192.18,125.54 42.32,28.03 161.75,112.33 199.6,123.78l-0.1 -26.95c64.32,-16.22 118.23,-53.18 174.78,-68.2 40.26,-10.69 118.82,49.23 159.43,68.19 290.58,135.62 710.56,160.96 1026.9,81.57 70.72,-17.76 121.44,-41.2 185.88,-59.03 25.91,14.07 105.24,84.75 120.97,105.91 -1.59,1.59 -4.02,3.52 -5.15,4.35 -1.11,0.83 -3.84,3.22 -5.25,4.2l-90.12 39.75c-33.33,12.9 -70.21,24.65 -102.77,35.67 -33.56,11.36 -73.52,24.49 -111.38,37.57 -32.44,11.19 -75.24,19.15 -104.79,32.74 12.24,-0.65 27.87,-2.08 39.7,-0.22 21.24,3.33 15.04,3.39 26.01,10.1l-4.28 -6.48c9.04,-33.59 -15.73,-4.22 14.46,-16.7 22.56,-9.33 20.48,-21.31 15.38,9.3l817.29 -285.46 39.52 44.54 -1.56 -83.76c-141.07,3.48 -382.52,182.98 -452.29,127.42 -28.85,-22.97 -92.78,-80.86 -106.45,-110.39 105.78,-102.42 143.45,-125.02 215.81,-287.54 105.06,-235.96 42.35,-334.95 71.83,-435.89 88.2,-40.44 193.67,-41.72 283.25,-208.86 111.65,-208.33 -9.47,-531.41 -364.24,-530.74 -167.32,0.32 -235.47,106.77 -305.19,186.93 -48.04,-11.79 -106.05,-43.33 -161.97,-62.34 -27.85,-9.47 -56.5,-18.67 -83.24,-26.06 -38.78,-10.7 -63.12,-8.93 -78.7,-33.62 -18.06,29.76 -26.24,51.87 -28.6,93.35 139.03,8.37 317.47,122.44 380.28,131.38 76.38,-74.28 103.87,-179.26 231.93,-205.46 290.22,-59.41 450.44,265.79 313.77,443.69 -94.24,122.67 -205.72,113.33 -274.47,157.6 -23.04,117.44 57.02,433.91 -233.28,686 -197.06,171.12 -400.97,188.65 -723.15,165.62 -229.11,-16.39 -518.52,-77.48 -684.88,-222.29 -69.25,-60.26 -151.26,-147.59 -192.57,-260.42 -53.29,-145.56 -20.14,-254 -15.24,-402.47 -98.24,-67.73 -223.2,-46.54 -310.56,-151.56 -76.44,-91.88 -52.64,-243.8 15.58,-345.73 49.74,-74.33 159.49,-168.17 312.59,-129.36 140.72,35.69 208.72,200.98 245.86,210.86 30.85,8.22 201.89,-99.12 342.47,-107.61 7.03,-15.3 -14.09,-6.8 15.98,-14.44l23.82 -50.35 6.37 -26.94c-168.56,9.02 -305.8,93.46 -371.5,104.08 -60.04,-174.2 -441.23,-338.89 -644.07,-35.72 -118.5,177.13 -119.52,400.92 80.18,525.7 58.37,36.46 149.26,48.33 186.36,73.13 -5.43,215.06 -12.29,361.28 117.71,529.65 26.25,34 79.57,90.8 93.04,127.57l-164 81.61c-38.78,-24.19 -63.83,-45.66 -97.97,-68.36l-191.4 -132.33c-33.92,-25.21 -63.8,-47.3 -123.74,-33.81l3.73 76.73c-22.09,-11.03 -41.07,-30.32 -56.52,-10.44 -9.81,12.61 -16.39,66.22 -17.74,95.38 -50.53,-10.04 -78.5,-50.06 -83.07,26.82 -3.06,51.46 5.38,103.76 -2.79,155.9 -204.37,10.88 -326.89,129.11 -328.41,335.85 -1.74,237.62 79.45,345.58 290.37,384.75l4.97 126.91c-54.57,-37 -151.71,-204.15 -333.7,-198.33 -73.55,2.35 -134.46,47.13 -162.63,97.83 -165.81,298.49 22.27,1105.81 340.35,1134.15 75.79,6.74 146.54,-40.4 199.43,-66.96 64.33,-32.31 107.89,-65.76 159.81,-98.83 162.7,-103.63 97.22,-129.75 500.17,129.23 56.77,36.49 106.23,63.5 168.48,100.71 48.18,28.81 115.81,86.48 164.67,74.28z"/>
   <path class="fil2" d="M4263.66 5134.05c19.08,90.93 6.22,70.24 -16.34,146.67l75.69 -0.1c-2.68,36.46 -8.52,38.2 6.83,64.35 22.6,-5.35 214.92,-114.62 236.35,-32.52l0.57 45.25c-25.75,160.02 6.35,125.49 17.86,214.76 59.54,9.69 97.8,8.04 138.84,40.87 4.91,85.7 -65.67,105.33 -94.12,120.34 -7.8,83.24 52.94,35.81 6.87,131.04 -69.85,22.11 -115.17,32.51 -167.51,13.96l-9.63 11.02c-9.17,11.71 -4.59,6.1 -12.43,16.59 -81.8,109.48 -140.8,75.1 -247.97,106.97l-17.95 235.74c38.99,-0.6 427.43,-127.53 496.82,-149.53l365.8 -114.53c43.56,-13.85 88.91,-32.91 135.02,-37.6l102.48 -37.96 21.39 -536.61c-35.54,-35.39 -147.13,-86.43 -148.38,-259.07 -0.61,-84.41 13.13,-104.42 39.14,-165.25 40.8,-95.46 -11.27,-88.62 -17.51,-146.81 -50.2,2.39 -874.54,263.74 -907.68,284.41l-4.11 48z"/>
   <path class="fil3" d="M1163.44 3447.3c32.17,-18.62 77.52,-14.92 117.52,-14.48l-21.13 86.4c-40.37,-12.48 -80.43,-39.71 -96.39,-71.92zm610.34 -1109.74c-71.19,3.19 -155.85,-43.7 -229.5,-57.81 -58.8,-11.26 -137.11,71.51 -114.76,152.59 110.94,50.24 20.73,-53.87 230.35,120.96 122.65,102.28 142.61,107.05 154.18,200.26 -115.4,-0.47 -71.74,12.06 -235.65,-72.81 -39.23,-20.31 -122.87,-61.87 -152.06,-88.41 -30.23,-27.5 -13.44,-25.2 -32.86,-50.44 -59.39,-77.2 -156.45,78.15 -116.41,144 33.21,54.64 138.81,128.35 146.39,186.02 -84.89,5.58 -174.51,-20.87 -241.35,-15.39 -49.93,4.1 -112.16,108.3 -82.95,153.42 31.35,55.91 67.97,3.28 131.98,27.04 28.54,10.59 86.91,45.85 116.07,60.85 38.42,19.75 78.28,43.63 112.13,64.02 57.9,34.89 63.27,21.18 80.48,91.07 -76.43,61.28 -196.99,28.51 -347.93,32.42 -60.73,1.57 -135.8,-1.83 -186.75,12.54 -46.48,13.11 -99.3,58.52 -60.63,109.35l343.22 240.55c51.06,37.43 75.77,46.87 83.83,119.46 -30.57,12.78 -19.08,18.14 -50.18,20.68l-333.8 -62.66c-70.79,-24.44 -19.09,-56.09 -101.15,-58.84 -47.7,29 -80.05,146.01 -50.12,209.31 43.12,63.61 57.86,-36.21 202.66,19.04 7.68,38.51 -2.98,69.21 -13,99.22 -42.28,-0.41 -94.42,-3.79 -120.56,-28.34 -20.37,-19.13 -49,-70.61 -94.54,-20.4 -34.39,37.91 -63.39,202.51 10.75,213.21 59.34,-7.62 18.32,-39.13 116.56,-21.5l261.86 52.63c86.82,22.75 44.19,53.84 95.4,62.67 77.67,13.37 107.54,-151.86 78.99,-200.02 -44.69,-75.39 -37.72,34.9 -229.99,-28.21 -0.72,-48.79 -3.77,-59.88 14.37,-101.19 143.1,-21.19 143.4,79.13 207.48,70.31 67.29,-9.26 80.86,-156.26 54.75,-212.6 24.57,-28.81 35.04,-25.22 52.44,-70.35 15.73,-40.83 20.97,-65.91 6.45,-106.82 -75.2,-46.48 -58.89,29.16 -107.81,-2.98 -13.01,-15.54 -4.19,-132.82 60.43,-144.36 25.6,20.35 14.56,26.92 38.97,55.03 66.04,3.2 73.87,-28.38 93.51,-79.64 25.46,-66.48 25.46,-79.55 23.67,-156.28 40.96,-19.28 92.8,-91.08 67.31,-153.3 -68.07,-24.86 -52.7,20.49 -129.2,-18.48 -35.09,-17.87 -80.28,-39.65 -102.18,-63.33 58.14,-34.45 198.38,44.78 280.22,22.6 5.26,-66.83 -163.2,-152.63 -170.01,-225.15 51.87,7.16 123.46,47.44 147.44,90.91 71.52,129.7 169.84,-75.3 162.35,-155.7 56.04,-8.89 126.39,-83.93 95.74,-147.5 -57.18,-29.33 -54.02,15.59 -123.41,-43.8 -25.21,-21.57 -70.88,-49.95 -76.44,-84.34 81.19,10.55 189.57,92.26 272.51,86.92 -4.17,-77.52 -114.94,-172.44 -128.96,-249.44 44.06,5.01 77.09,42.62 102.63,68.12 41.7,41.61 18.33,87.72 68.91,97.5 53.45,10.33 162.34,-115.08 137.81,-173.7 -38.18,-51.59 -52.74,-5.14 -116.49,-51.42 -69.27,-50.28 -237.18,-173.19 -261.06,-238.28 -50.08,-136.56 -160.7,27.08 -153.39,75.87 9.26,61.78 102.16,151.1 111.28,224.96z"/>
   <path class="fil2" d="M2878.02 4767.34c29.27,50.89 -2.95,180.59 -25.02,230.58 -43.58,98.69 -69.61,63.71 -68.59,198.77 1.06,140.46 14.79,423.8 -4.76,548.7 43.22,30.13 625.99,383.07 679.87,395.78 29.63,-98.5 3.31,-171.87 31.25,-187.66 -56.12,-14.32 -90.54,-9.85 -146.61,-30.59 -241.97,-89.55 37.7,-122.35 49.9,-161.49 -8.48,-100.13 -141.77,-29.8 -144.1,-70.75 -39.08,-4.74 -85.42,-29.97 -96.58,-68.1 16,-26.74 30.63,-33.35 65.63,-45.12l-2.71 -0.55c20.11,-40.48 13.03,-20.99 59.35,-36.09l-5.74 -31.24c-26.81,-46.61 -60.43,-40.08 -60.15,-78.48 -47.57,-17.93 -51.5,-71.01 -47.13,-113.99 46.75,-33 178.67,-45.72 229.65,64.74 66.63,74.35 67.41,16.89 47.83,-55.13 -14.77,-54.33 -7.38,-121.17 19.63,-165.81 32.97,-0.83 55.48,2.54 78.35,18.86 7.2,-126.26 50.83,-185.79 -34.75,-230.22 -60.88,-31.62 -537.65,-273.45 -551.48,-295.28l-103.06 -36.71c-32.71,48.06 19.23,80.37 29.22,149.77z"/>
   <path class="fil3" d="M3936.26 1258.55c43.07,17.23 63.67,87.13 64.8,110.41l-87 6.28 22.2 -116.69zm320.85 333.39l5.82 -26.54c26.22,15.57 8.33,-9.07 13.5,22.5 3.48,63.67 119.97,67.32 162.5,42.78 38.96,-79.43 -18.56,-47.17 -15.2,-125.46 1.96,-45.65 9.3,-99.76 35.71,-130.33 72.44,46.08 134.9,310.78 222.15,320.41 61.11,-55.32 76.66,-330.81 111.99,-440.87 22.25,-69.3 63.94,-32.81 63.22,-121.96 -37.81,-25.3 -92.94,-51.95 -158.53,-30.17 -50.12,42.62 -8.3,62.3 1.49,97.4 10.25,36.81 -7.23,100.43 -16.52,128.5 -67.5,-16.49 -123.75,-234.13 -186.93,-268.45 -35.13,-19.09 -103.15,-20.8 -139.31,-0.61 -38.31,64.8 11.56,52.99 19.09,110.99 6.21,47.91 -5.91,98.51 -13.67,143.78 -23.65,138.09 -14.28,164.15 -77.18,238.38 -130.91,-117.31 -146.96,-311.46 -258.46,-485.75 -32.68,-51.08 -123.58,-87.63 -140,2.89 -26.27,144.84 -50.73,277.04 -83.54,416.19 -13.91,58.98 -8.88,44.56 -43.83,77.27 -112.61,105.37 202.23,118.82 171.31,14.61 -31.76,-42.76 -40.39,-11.08 -44.41,-64.8 25.31,-30.47 105.39,-37.83 147.33,-19.21 35.26,64.68 -44.39,23.34 -12.33,104 47.24,56.38 185.05,21.47 235.81,-5.55z"/>
   <path class="fil4" d="M3245.77 4428.82c17.93,5.42 482.28,271.56 517.17,319.89 29.93,6.81 54.4,21.26 76.55,49.99 49.95,-0.01 76.4,68.96 149.7,49.37 56.7,-15.16 111.36,-35.24 168.59,-54.77 105.63,-36.05 223.73,-76.81 336.39,-108.7 29.55,-13.59 72.35,-21.55 104.79,-32.74 37.86,-13.08 77.82,-26.21 111.38,-37.57 32.56,-11.02 69.44,-22.77 102.77,-35.67l90.12 -39.75c1.41,-0.98 4.13,-3.37 5.25,-4.2 1.13,-0.83 3.56,-2.76 5.15,-4.35 -15.73,-21.15 -95.06,-91.83 -120.97,-105.91 -64.44,17.83 -115.16,41.27 -185.88,59.03 -316.34,79.39 -736.32,54.05 -1026.9,-81.57 -40.61,-18.96 -119.17,-78.88 -159.43,-68.19 -56.56,15.02 -110.46,51.98 -174.78,68.2l0.1 26.95z"/>
   <path class="fil5" d="M3840.05 6094.59c-4.71,-165.32 84.69,-302.15 119.81,-444.04 -56.67,39.54 -186.93,287.48 -207.18,394.38 -45.06,237.88 68.11,402.14 83.41,490.83 -90.68,3.32 -40.69,-1.86 -101.92,-22.3 -81.6,-27.26 -199.1,60.37 -257.55,114.3l2.71 58.89c85.56,32.01 331.11,65.4 433.81,61.65 172.89,-6.31 271.85,-35.98 421.19,-66.45 -15.26,-47.78 -59.21,-75.87 -108.11,-93.2 -48.07,-17.04 -126.25,-13.02 -175.78,-20.51 -137.15,-20.72 -144.33,-90.22 -173.02,-215.7 -39.3,-171.94 -67.9,-179.48 79.61,-250.98 85.94,-41.64 158.23,-108.16 197.13,-185 -78.76,21.72 -208.19,162.62 -314.12,178.12z"/>
   <path class="fil3" d="M6144.15 2577.11c85.85,11.06 60.65,-26.65 91.79,-74.42 11.35,-17.43 68.41,-63.39 93.29,-74 34.21,10.79 58.4,36 66.92,74.46 -10.81,23.49 -42.58,49.91 -72.16,68.77 -32.36,20.64 -73.06,15.33 -118.81,32.94 -4.88,66.28 33.42,131.17 85.25,169.51 78.7,58.22 96.91,-43.97 97.7,-46.06 15.58,-41.09 198.81,-170.22 245.94,-207.02 74.54,-58.19 94.95,-3.15 133.26,-52.04 31.67,-55.61 -91.3,-206.22 -151.32,-176.43 -29.43,14.62 -16.16,103.92 -120.17,135.2 -78.24,-52.2 -67.3,-86.62 -1.38,-130.26 43.53,-28.81 190.42,2.47 75.13,-146.24 -125.01,-161.24 -145.86,1.57 -146.14,2.19 -14.43,30.93 -201.68,168.72 -238.89,195.69 -77.83,56.39 -71.97,12.06 -134.1,43.54 -32.61,91.42 55.53,143.26 93.69,184.18z"/>
   <path class="fil3" d="M6754.79 3494.72c-37.78,-105.16 259.82,-254.78 313.08,-192.8 56.58,65.83 -207.94,239.51 -313.08,192.8zm171.97 -349.48c-158.49,27.48 -290.19,105.33 -320.67,246.63 -35.09,162.66 121.85,276.95 284.86,256.2 478.4,-60.89 382.04,-562.88 35.81,-502.83z"/>
   <path class="fil3" d="M6561.77 3019.24c-30.94,-69.19 54.28,-134.72 90.04,-165.48 26.47,-22.79 136.65,-110.67 188.61,-74.51 73.19,50.93 -160.21,271.18 -278.66,239.99zm134.13 -373.41c-416.77,92.45 -365.11,595.04 14.97,507.7 123.17,-28.31 276.67,-136.69 293.01,-262.22 23.48,-180.33 -129.41,-285.1 -307.98,-245.48z"/>
   <path class="fil6" d="M4333.51 2324.32l7.7 43.01c0.8,2.85 2.45,11.23 3.09,9.89 0.67,-1.44 2.27,7.03 3.07,10.64 -28.04,-8.61 -48.53,-18.65 -58.3,-23.61l-42.5 -0.78c-42.74,2.98 -3.74,4.72 -18.51,-11.56 -44.14,-33.7 -39.83,-23.43 -84.78,-5.59 -59.34,23.55 -95.67,26.46 -142.69,69.03 -20.74,18.78 -13.96,26.11 -47.35,49.69 -6.44,21.08 -28.56,69.75 -26.09,67.91 0.98,12.34 4.88,43.23 3.16,54.69 -6.39,42.37 -2.11,19.89 -16.8,33.44 15.71,-1.08 18.32,-21.61 26.85,17.72 5.95,27.44 -3.7,27.85 -7.57,38.54 32.89,-11.03 13.37,-10.5 29.26,7.9 11.9,13.78 6.15,32.52 6.13,32.89 27.87,18.97 12.1,10.24 33.76,30.54 9.54,8.94 23.34,19.06 36.18,27.22 28.09,17.87 21.54,9.65 44.42,20.04 21.39,9.7 21.88,24.87 25.13,12.73 32.13,4.17 101.59,4.86 134,2.03l47.34 -15.17c15.81,-7.69 33.97,-17.92 50.12,-23.89l0 -18.51c54.41,0 8.22,-1.53 27.77,9.2 12.99,-42.64 46.51,-65.69 57.53,-96.54 17.48,-48.96 12.54,-105.79 5.19,-156.31 -22.54,-11.48 -21.63,-29.56 -21.72,-30.19 -4.95,-17.72 -12.85,-30.5 -24.97,-47.5 -22.43,-31.43 -13.5,-12.29 -40.39,-39.72l19.67 -15.44c77.6,-53.07 23.68,-36.72 68.74,-59.26l-1.77 -84.6 -6.11 -19.71c-31.57,-0.72 -10.39,-18.15 -24.52,21.79 -17.79,50.24 -7.38,32.87 -41.06,63.8l-23.97 25.67z"/>
   <path class="fil3" d="M3072.26 1197.72c-10.78,121.65 77.62,15.6 93.79,214.73 -120.94,-15.62 -221.6,-180.75 -335.75,-140.8 -37.46,13.12 -92.59,36.22 -71.63,89.06 15.41,38.85 47.06,7.36 82.15,85.59 135.19,301.47 71.28,334.15 89.07,393.07 55.89,23.19 144.11,10.08 168.14,-58.23 -11.47,-69.48 -41.27,-32.12 -72.2,-93.57 -15.56,-30.92 -34.93,-87.98 -37.91,-129.89 82.73,-1.81 302.51,224.55 352.27,170.56 8.08,-8.77 11.73,-29.07 2.01,-70.33l-65.18 -211.94c-13.9,-44.35 -33.67,-97.51 -43.85,-142.67 -19.91,-88.26 35.39,-62.23 -0.93,-145.91 -69.69,-18.14 -122.48,15.27 -159.97,40.32z"/>
   <path class="fil3" d="M5514.24 1697.83c0.22,108.96 99.64,163.25 65.22,224.58 -46.34,19.17 -76.28,-13.27 -87.06,-53.11 -11.65,-43.07 9.98,-106.09 -19.66,-138.19 -68.15,-9.98 -118.38,161.51 -76.03,223.73 134.83,198.04 369.93,102.32 403.72,-73.55 26.49,-137.89 -126.26,-201.69 -70.55,-264.91 66.19,-49.06 81.68,109.44 100.79,143.61 88.58,2.49 97.02,-90.04 90.41,-180.45 -117.18,-71.22 -44,-31.96 -103.31,-74.07 -40.39,-28.68 -92.85,-43.81 -152.76,-26.98 -79.5,22.31 -150.98,109.43 -150.78,219.33z"/>
   <path class="fil3" d="M6191.16 2112.76c64.16,76.3 160.68,-87.13 165.58,-168.42 -89.46,-62.47 -59.66,-134.02 -177.93,-162.02 -98.54,-23.34 -191.82,24.13 -255.44,74.33 -112.78,89 -238.67,344.76 -59.09,454.26 85.44,52.09 200.32,50.35 250.66,-22.81 83.8,-121.79 -132.62,20.37 -146.76,-146.29 -14.56,-171.4 194.52,-320.37 223.41,-184.53 13.3,62.49 -27.51,115.28 -0.43,155.48z"/>
   <path class="fil3" d="M3320.5 1130.67l1.08 48.89c65.3,52.13 51.59,4.39 90.49,223.17 7.25,40.76 19.56,94.47 22.41,137.76 6.19,93.64 -38.8,53.74 -18.88,138.01 59.57,44.48 226.76,17.48 243.55,-40.96 18.35,-63.79 -45.19,-53.77 -65.41,-92.13 -17.38,-33 -31.24,-105.89 -13.68,-134.24 79.54,9.87 16.61,80.96 92.56,80.04 32.81,-37.42 17.76,-103.64 8.5,-153.4 -10.17,-54.68 -15.92,-110.72 -74.68,-110.59l-15.96 79.14 -38.11 2.91c-5.44,-8.68 -51.48,-124.17 10.85,-139.43 10.29,-2.53 24.86,-4.44 35.42,-4.09 73.02,2.45 93.56,87.48 131.43,51.68 23.74,-39.46 2.52,-95.46 -17.49,-132.99 -32.13,-60.2 -48.83,-41.89 -111.85,-23.45 -86.51,25.3 -214.22,27.83 -280.23,69.65z"/>
   <path class="fil3" d="M5032.29 1298.8c-0.12,52.7 -72.69,257.69 -103.72,312.92 -23.01,41 -43.96,29.33 -78.29,58.02 -9.11,119.22 213.32,154.48 244.56,108.38 21.19,-79.9 -21.21,-40.32 -13.94,-115.2l88.2 -264.46c11.82,-34.24 5.38,-32.09 30.84,-43.86 23.46,34.52 8.31,111.95 55.54,120.06 80.17,-12.7 92.82,-153.86 55.54,-220.46 -23.43,-10.79 -59.81,-12.37 -89.4,-21.9 -34.54,-11.13 -56.25,-19.56 -90.08,-30.93 -134.85,-45.31 -109.47,-66.48 -157.97,-26.47 -120.17,99.15 -97.25,232.69 -15.95,170.18 33.77,-25.96 27.28,-44.62 74.66,-46.28z"/>
   <path class="fil3" d="M2074.26 1751.78c40.26,28.25 71.62,28.44 68.83,102.67 -82.49,-8.7 -63.03,-40.94 -99.83,-89.44 -67.69,-5.75 -144.56,61.83 -169.92,95.94 -24.67,33.19 -19.28,77.31 18,90.25 25.9,8.99 47.18,-5.64 104.77,16.38 78.87,30.14 123.83,38.81 170.98,97.22 20.77,25.72 42.1,51.88 61.2,77.54 38.16,51.25 6.3,60.92 27.88,111.76 57.91,61.76 260.84,-96.55 185.22,-167.46 -40.93,-38.37 -13.59,53.68 -146.93,-102.76 -54.16,-63.54 -57.55,-73.61 -74.13,-175.68 -24.67,-151.98 41.57,-172.31 -30.19,-182.25 -30.34,-4.2 -123.88,37.07 -115.91,125.85z"/>
   <path class="fil3" d="M3914.95 4021.16c-15.47,2.21 -47.26,19.72 -57.48,27.8 -22.83,18.05 -3.54,-1.8 -21.33,25.31l-16.75 27.89c-17.63,40.66 -15.7,96.57 25.13,135.91 182.22,175.63 518.95,114.2 586.28,31.5 97.94,-120.33 -24.47,-220.05 -74.03,-229.89l-126.3 -43.21c8.64,22.06 21.23,37.96 23.39,53.93 6.42,47.41 -7.41,36.89 -19.7,45.92l1.97 0.18 -11.82 22.53 -53.4 14.9 17.28 63.11c38.37,18.83 52.3,7.77 97.17,-0.93 26.98,-54.38 58.84,-22.97 60.24,1.44 2.29,39.54 -33.72,44.05 -33.75,44.07 -45.41,5.8 -77.43,38.88 -147.26,1.2l-38.39 -24.24c-86.06,35.16 -134.82,40.32 -196.5,-21.82 -1.91,-1.22 -38.69,1.11 -11.78,-38.91 5.51,-8.19 21.42,-13.56 33.95,-19.19l24.83 24.78 12.87 22.98 70.25 6.46c15.9,-26.02 22.68,-29.55 30.92,-60.6 -12.41,-25.27 -11.52,-17.81 -29.11,-37.76 -37.75,-9.09 25.33,31.96 -13.25,-6.87 -20.98,-21.12 9.08,27.15 -9.65,-11.6 -15.06,-31.13 6.1,-58.57 7.26,-61.24l15.27 -29.66c-74.69,1.84 -84.97,24.23 -146.3,35.99z"/>
   <path class="fil3" d="M6717.1 3735.13c-16.35,39.24 6.72,108.19 17.06,158.87 10.93,53.61 15.07,130.06 26.67,177.41 48.3,26.14 217.3,60.37 216.37,-43.3 -59.11,-24.11 -141.66,7.71 -117.67,-115.58 63.15,-20.72 257.73,-63.27 322.31,-67.99 65.48,-4.79 110.84,65.64 140.98,4.26 33.49,-68.21 -37.03,-320.59 -123.7,-189.2 -18.15,27.53 -15.89,23.9 -59.35,33.39l-247.2 49.56c-104.26,14.5 -104.97,-44.48 -175.46,-7.41z"/>
   <path class="fil1" d="M1976.39 6346.72c1.77,47.63 -106.06,159.76 -115.13,167.36 -33.7,28.22 -35.63,7.4 -68.82,24.89 18.37,26.67 111.3,89.41 138.57,103.92 7.76,-15.07 -14.65,-19.69 19.18,-7.43 -14.19,-42.56 12.27,-59.43 36.09,-88.78 14.66,-18.06 40.06,-53.89 60.91,-68.53 65.66,-46.13 88.89,22.72 96.41,42.22l8.98 19.36c9.52,13.51 25.87,21.09 39.02,30.2 30.73,-14.05 21.47,-25 57.39,-32.04 30.13,50.16 -7.73,78.32 -39.7,129.72 -75.51,121.39 -45.04,67.09 -109.26,92.79 22.85,28.78 133.63,85.69 176.68,96.59 -6.3,-36.98 -13.92,-55.87 6.45,-87.77 59.5,-93.16 74.78,-152.85 176.04,-91.69 1.43,60.69 -67.75,161.6 -82.61,175.96 -23.83,23.04 -13.65,9.85 -28.68,16.34l-26.91 11.61c24.68,22.64 134.85,79.59 173.18,89.17 -26.73,-85.77 6.91,-75.93 41.5,-153.91l-1.66 -30.44c16.98,-31.74 -26.24,-29.87 44.22,-21.22 22.16,2.72 32.44,10.02 60.04,3.17 13.1,-3.24 12.69,-3.5 19.95,-10.48 42.03,-40.41 9.19,-3.7 5.4,-15.82l-74.02 0.2c-35.23,-39.41 -16.66,-56.61 -76.7,-89.96 -47.11,-26.19 -83.02,-22.01 -141.59,-25.35l15.77 -41.29c-201.92,-74.13 -127.78,-122.21 -288.07,-144.96 -18.29,-29.17 39.02,-25.83 -99.75,-107 -7.89,17.09 18.72,14.28 -22.87,13.17z"/>
   <path class="fil3" d="M2694.57 1945.3c45.21,65 266.17,-47.7 199,-124.74 -59.24,-67.94 -4.34,84.83 -161.42,-236.76 -11.47,-23.47 -36.18,-65.13 -43.59,-87.55 -17.69,-53.52 13.7,-75.61 -11.19,-108.28 -37.16,-48.78 -140.07,10.79 -175.04,37.62 -25.68,19.72 -50.22,52.3 -24.35,87.04 26.09,35.05 39.87,-6.12 78.09,61.35 32.1,56.65 59.3,114.52 87.29,171.79 97.42,199.31 3.55,143.71 51.2,199.53z"/>
   <path class="fil7" d="M2299.84 5581.38c-168.5,79.96 -54.88,513.8 122.94,438.91 79.41,-33.45 102.15,-175.38 72.77,-276.55 -22.97,-79.1 -98.67,-208.41 -195.71,-162.36z"/>
   <path class="fil7" d="M5636.32 5648.61c-192.89,79.37 -189.69,516.3 16.52,426.9 182.98,-79.35 187.03,-510.65 -16.52,-426.9z"/>
   <path class="fil3" d="M5060.53 6894.04c18.56,27.66 49.74,87.19 56.68,128.55 10.46,62.41 -50.76,100.82 -105.95,76.09 -52.18,-23.39 -138.61,-231.95 49.28,-204.64zm-100.63 -21.05c-25.58,8.95 -56.83,24.96 -78.35,41.47 -135.94,104.18 17.46,396.61 253.61,174.07 25.65,16.09 5.72,6.2 27.77,31.2 43.74,-17.58 110.29,-24.98 146.65,-53.15 -47.54,-29.32 -48.32,2.15 -72.65,-64.91 -24.25,-66.85 -89.4,-270.08 -111.03,-302.59 -35.51,2.89 -130.09,31.2 -154.25,52.78 51.47,33.25 56.26,-6.63 81.87,92.57l-49.8 16.18c-15.97,4.06 -31.2,7.95 -43.82,12.37z"/>
   <path class="fil7" d="M3914.95 4021.16c23.56,-30.58 50.97,-32.12 99.99,-44.17 74.56,-18.32 293.87,-11.04 341.81,62.69 49.56,9.84 171.96,109.56 74.03,229.89 -67.32,82.71 -404.06,144.13 -586.28,-31.5 -40.82,-39.34 -42.76,-95.25 -25.13,-135.91l16.75 -27.89c17.79,-27.1 -1.5,-7.26 21.33,-25.31 10.22,-8.08 42.01,-25.59 57.48,-27.8zm-156.39 175.92c19.91,67.74 92.86,120.54 158.07,153.72 238.95,121.56 669.74,19.33 602.12,-212.47 -92.92,-318.5 -855.08,-264.08 -760.19,58.74z"/>
   <path class="fil7" d="M4982.71 3243.67c65.93,-84.63 168.98,-39.47 202.86,-4.18 61.9,64.48 -13.54,154.59 -70.95,171.45 -21.44,-29 -38.05,-48.64 -66.31,-80.35l-65.6 -86.93zm-116.12 9.25c20.21,40.7 64.49,71.5 97.24,106.15 38.98,41.22 52.83,79.91 87.27,116.85 79.22,84.96 205.66,-49.92 233.38,-119.21 51.2,-127.93 -62.72,-215.8 -155.42,-236.71 -116.85,-26.36 -234.28,49.33 -262.46,132.92z"/>
   <path class="fil7" d="M3209.8 3371.07c-63.3,-15.37 -131.72,-83.24 -86.71,-158.86 49.14,-82.56 141.58,-55.81 210.67,-26.43 -17.23,43.95 -89.59,144.03 -123.96,185.29zm-35.29 -285.07c-98.46,31.5 -197.97,114.54 -141.72,233.37 50.12,105.86 183.74,180.61 240.31,127.03 21.83,-20.69 57.58,-97.87 77.17,-127.19 15.31,-22.91 83.32,-102.22 86.67,-116.53 18.9,-80.97 -167.67,-146.99 -262.42,-116.69z"/>
   <path class="fil1" d="M6689.17 6068.72c-79.98,13.38 -77.23,-1.33 -137.76,-38.81 -35.97,-22.27 -104.43,-53.29 -55.29,-119.76 39.24,-53.08 151.28,28.74 190.67,58.36 32.13,24.16 18.17,27.05 31.22,63.53 30.47,-13.97 109.14,-125.71 112.49,-157.83 -31.72,6.97 -29.37,22.14 -65.62,7.63 -25.4,-10.16 -120.78,-81.87 -160.71,-91.21 -109.3,-25.57 -142,88.83 -154.05,175.04 -29.83,-10.07 -15.12,-12.45 -41.31,-13.42 -27.13,40.37 -67.53,82.84 -80.49,126.65 73.01,-10.24 15.63,-43.58 152.77,39.53 130.15,78.89 70.56,55.2 98.08,106.2 26.33,-16.69 107.61,-123.87 110,-155.91z"/>
   <path class="fil3" d="M4774.52 7223.48c15.79,-15.44 -17.65,-11.09 16.57,-15.2 -24.22,0 -0.17,3.17 -10.06,-15.53 -61.15,-77.4 17.98,-286.64 -198.45,-234.53 -45.43,10.93 -64.45,35.7 -95.39,52.98 -1.33,-2.04 -2.09,-5.38 -2.79,-6.76 -0.69,-1.34 -2,-4.94 -2.91,-6.5 -1.16,-2.02 -5.05,-9.51 -6.7,-11.31 -21.09,-22.99 -137.5,4.07 -161.29,24.43 37.21,25.09 39.09,-4.39 55.42,44.49 6.44,19.27 9.15,55.79 13.44,79.43 28.74,158.64 2.02,88.33 -14.9,146.4l193.75 -30.16c-9.61,-23.44 -21.46,-13.14 -37.38,-36.13 -16.57,-23.96 -29.22,-141.74 -25.79,-176.47 35.15,-25.76 49.14,-35.63 102.58,-28.09 25.22,33.86 25.76,67.69 35.14,120.58 3.18,17.91 9.76,45.56 6.26,63.39 -5.06,25.7 2.84,0.78 -11.48,24.72 -40.24,67.29 5.68,-33.41 -13.58,24.66l157.56 -20.4z"/>
   <path class="fil8" d="M1602.07 6029.87c25.13,-22.12 88.22,-71.95 127.66,-81.67 57.52,98.85 75.28,33.63 50.13,161.74l34.14 34.47 70.67 -49.58c-11.33,-27.24 -219.24,-278.85 -239.22,-295.26 -36,48.59 64.69,8.96 -145.29,149.64 -139.74,93.63 -107.86,100.5 -187.24,74.04 -0.14,33.39 113.05,163.1 135.67,170.32 3.72,-58.88 -21.82,-46.34 34.66,-85.09 29.48,-20.22 51.35,-42.53 89.83,-51.71 9.52,16.02 30.75,38.13 34,58.15 8.67,53.31 -25.29,25.06 1.34,68.71 18.41,17.66 112.54,-31.04 111.35,-80.04 -45.09,-24.19 -98.29,8.71 -117.7,-73.72z"/>
   <path class="fil1" d="M6390.54 6381.61c-79.82,104 -208.59,-44.45 -216.96,-77.04 -13.76,-53.57 8.54,-55.11 29.8,-82.37 97.01,-7.06 209.35,69.61 187.16,159.41zm70.46 -46.28c51.99,-107.93 -57.29,-204.51 -159.11,-194.64 -76.95,7.46 -175.51,106.44 -197.94,163.82 -71.37,182.49 224.65,305.72 357.06,30.82z"/>
   <path class="fil3" d="M3577.76 7007.16c127.64,-51.21 127.88,189.02 52.76,221 -143.63,61.15 -134.25,-188.31 -52.76,-221zm-180.04 152c41.09,145.39 453.15,173.39 403.65,-73.35 -32.43,-161.72 -471.55,-166.9 -403.65,73.35z"/>
   <path class="fil1" d="M3330.08 6863.01c-7.33,-4.83 10.65,-7.26 -35.3,-17.96l37.22 -8.63c-26.86,-18.11 -105.55,-29.97 -140.78,-38.04 -34.7,-7.94 -98.01,-27.87 -136.13,-24.62 17.04,43.61 45.11,10.3 24.63,88.08 -9.96,37.85 -16.99,64.21 -27.63,102.25 -9.76,34.94 -20.41,72.38 -30.09,109.48 -17.46,67 -19.44,39.84 -62.49,67.07 23.79,20.19 167.12,51.88 214.9,54.99 -7.06,-24.65 -17.57,-20.29 -28.12,-37.61 -18.69,-30.69 15.54,-109.74 23.97,-140.73 153.08,11.41 46.81,59.69 141.35,74.47 12,-18.11 15.23,-37.75 21.6,-60.87 33.7,-122.16 -56.46,-42.75 -61.8,-41.11 -30.34,9.29 -61.16,-3.61 -89.59,-9.09l35.79 -139.93 112.47 22.24z"/>
   <path class="fil9" d="M5517.31 6841.98c12.13,30.3 30.44,50.04 13.12,82.4 -38.93,72.73 -151.31,37.8 -93.39,-37 18.83,-24.29 44.63,-37.88 80.27,-45.4zm-239.02 16.65c17.72,1.34 27.43,-0.13 40.85,-5.4 46.83,-18.38 22.61,-12.1 28.99,-27.91 14.4,-35.63 -4.26,-43.82 35.34,-66.22 55.48,-31.39 101.02,2.38 110.52,57.33 -364.27,164.8 -64.43,329.11 66.95,112.7 54.47,19.82 -30.1,54.15 159.5,-38.42 -2.25,-1.28 -5.6,-1.91 -7.38,-2.48l-36.39 -11.89c-64.77,-32.45 -54.49,-199.31 -180.27,-191.18 -51.93,3.35 -111.02,38.06 -149.74,65.17 -96.99,67.93 -90.57,61.63 -68.37,108.29z"/>
   <path class="fil10" d="M3244.38 4574.51c35.22,7.26 89.41,44.69 123,66.4l39.62 30.31c67.46,14.43 341.03,217.7 386.01,219.1 52.85,-17.92 30.41,8.32 36.97,-31.31l-41.94 -24.02c-41.2,-10.42 -133.15,-71.83 -179.55,-101.33 -34.35,-21.85 -153.69,-88.72 -173.65,-113.12 -35.63,-11.26 -345.41,-197.11 -363.93,-220.37 -36.32,-13.19 -57.41,-23.68 -76.74,-46.41 -48.22,-14.72 -165.81,-90.3 -201.1,-118.09l-18.59 -0.54 -6.95 45.26 362.71 218.45c27.68,16 99.81,50.19 114.14,75.68z"/>
   <path class="fil1" d="M5755.43 6585.26c33.44,-36.43 80.08,-38.35 82.61,-83.58 -47.52,-4.85 -66.1,27.89 -110.48,45.68 -19.9,-16.62 -28.42,-31.5 -48.37,-50.04l-73.67 50.92c37.07,129.99 6.92,57.29 -3.54,120.83l51.52 -15.64c41.39,43.46 94.61,151 150.28,162 90.8,17.95 167.84,-68.28 186.47,-128.85 -62.07,0.6 -34.5,18.26 -86.83,48.03 -47.81,10.86 -127.26,-111.43 -148.01,-149.34z"/>
   <path class="fil11" d="M4198.66 6013.25l-45.11 7.48c0.45,93.13 -30.38,182.52 -14.7,274.04 75.38,9.69 744.64,-228.11 885.18,-261.25 -11.16,-7.56 14.8,-13.6 -29.57,-13.76 50.77,-30.97 3.08,-10.69 55.98,-19.23 45.39,-7.34 101.06,-16.53 127.93,-53.19 -46.11,4.69 -91.46,23.74 -135.02,37.6l-365.8 114.53c-69.39,22 -457.83,148.93 -496.82,149.53l17.95 -235.74z"/>
   <path class="fil12" d="M3761.6 2361.59l49.56 39.72c63.49,1.35 79.09,16.43 134.83,34.36 24.98,-37.03 39.3,-45.3 72.88,-67.73l29.77 -22.16c-13.82,-52.29 -22.85,-36.48 -52.25,-66.89l-126.89 -7.22c-23.16,-6.85 -24.28,-1.87 -31.51,-28.19 -23.19,-66 -105.59,-83.41 -190.99,-70.75 29.45,19.78 67.19,34.4 81.6,70.89 20.58,52.11 -5.66,76.28 33,117.96z"/>
   <path class="fil12" d="M3904.82 2781.73c-1.26,35.36 -2.86,55.8 4.96,87.06 12.24,48.85 14.1,30.26 1.29,75.57 -17.83,32.25 0.31,14.25 -32.04,29.31l-23.82 50.35 -4.33 78.43 34.54 -2.84c38.06,-71.11 77.26,-37.75 136.24,-79.11 49.41,-53.91 48.2,-54.78 52.05,-142.32l12.96 -57.28c-47.63,-7.02 -92.37,-42.17 -124.2,-67.87l-2.93 -8.02c-34.83,25.06 -21.55,32.75 -54.71,36.73z"/>
   <path class="fil13" d="M4450.12 2756.65l82.75 2.03c46.98,-1.03 16.48,-13.78 66.17,-16.24 40.94,-2.04 37.59,8.09 70.91,21.73 57.54,23.56 88.01,11.78 144.73,4.42 2.68,-26.02 8.36,-3.48 -8.46,-31.42 -0.83,-1.38 -3.46,-3.74 -5,-5.75 -2.89,-1.08 -15.36,-5.06 -17.36,-6.19 -29.48,-16.54 0.37,6.69 -12.04,-9.4 -6.89,3.51 16.03,26.49 -26.37,3.34 -20.76,-11.33 -15.83,-20.16 -21.55,-35 -4.93,-23.08 -26.49,-53.04 -45.68,-66.39 -26.04,-18.14 -52.4,-17.25 -90.73,-25.58 -19.76,36.28 -83.89,29.45 -122.93,28.3 -5.67,37.08 -10.04,49.21 -25.4,74.54 -27,44.56 -52.43,60.14 10.95,61.62z"/>
   <path class="fil14" d="M4154.56 5882.46l113.92 -22.81c-23.95,43.25 -56.23,52.3 -67.78,95.83 159.74,52.57 256.8,-145.85 261.83,-211.44 -92.49,-2.08 -294.09,-31.51 -307.97,138.43z"/>
   <path class="fil15" d="M4233.91 2841.76c-1.39,0.21 -24.03,2.68 -24.28,2.74 -17.58,4.66 -14.73,5.68 -20.61,10.09l9.09 49.87c3.69,16.03 20.7,27.76 32.63,40.54 61.37,7.83 114.72,38.47 102.68,102.58l0.73 7.65c52.45,29.48 23.56,58.8 97.69,77.83l-3.81 -27.51 2.87 -37.35c2.36,-41.48 10.54,-63.59 28.6,-93.35 -2.22,-18.91 -1.24,-33.61 -6.92,-49.78 -11.81,-33.63 -0.01,1.47 -19.38,-28.17 -20.88,-10.26 -42.66,-23.01 -61.48,-38.12 -25.11,-20.19 -17.59,-14.55 -32.62,-47.92 -26.84,0.33 -64.82,19.85 -105.19,30.89z"/>
   <path class="fil15" d="M3719.29 2615.31c-83.18,-6.48 -130.57,-0.59 -176.5,39.8 -2.46,52.84 -2.7,14.16 9.5,29.06 39.31,-1.74 48.13,-10.06 72.31,16.67 54.84,22.17 96.46,71.82 166.94,36.81 15.04,-35.08 1.65,-10.15 29.23,-34.47 25.78,-11.22 38.3,-21.46 59.93,-30.33l18.78 -5.18 6.64 -30.31c-39.47,-30.65 12.54,-39.75 -18.64,-112.72l-65.24 1.81 7.69 -6.49c-36.92,46.76 -47.39,39.54 -75.55,92.57l-35.09 2.78z"/>
   <path class="fil15" d="M4430.95 2317.38c12.41,42.53 -28.12,51.74 -44.19,83.94 28.8,27.07 30.95,24.07 51.6,65.6l9.3 19.07 9.76 26.71c32.8,0.17 55.23,-8.28 69.76,-25.16 14.09,-16.35 11.81,-32.76 34.91,-61.11 26.94,-83.19 -11.28,-38.77 83.02,-90.45 11.61,-6.36 4.68,-1.55 16.49,-10.28l16.05 -15.13c10.5,-53.23 16.13,-12.16 28.86,-71.94 -45.31,13.12 -99.5,47.47 -135.96,3.94 -30.85,2.82 -40.02,-3.81 -63.17,8.78 -25.95,36.95 -37.93,11.76 -51.34,63.15l-25.09 2.89z"/>
   <path class="fil15" d="M4187.35 2035.31l8.08 0.7c-6.16,51.49 -18.35,32.57 -50.13,69.52 -0.76,0.89 -23,30.26 -23.6,31.37 -8.76,16.13 -12.32,32.44 -16.89,42.26 13.18,20.63 19.47,33.7 13.25,63.03 23.5,-9.16 31.9,51.05 33.25,74.87l98.45 6.94c14.07,54.96 6.85,7.89 -21.69,27.91 14.77,16.28 -24.23,14.53 18.51,11.56 2.02,-7.05 -0.25,-24.77 9.26,-36.15 78.65,6.85 63.76,-21.5 51.74,-91.41 -10.57,-12.26 -50.72,-43.04 -52.96,-84.39 -1.77,-32.62 22.6,-94.69 3.61,-124.54 -36.42,-22.74 -11.11,-19.43 -39.46,-41.53 -14.7,20.74 -5.49,24.97 -31.41,49.86z"/>
   <path class="fil7" d="M4061.62 4094.53c45.63,-3.2 8.87,0.65 46.54,19.76l-2.87 53.52 -45.47 25.09 -70.25 -6.46 -12.87 -22.98 -44.72 -4.04 -2.28 37.35c61.67,62.14 110.43,56.98 196.5,21.82l38.39 24.24c69.83,37.67 101.85,4.59 147.26,-1.2 10.39,-22.87 16.59,-28.16 19.11,-55.92l-45.6 10.41c-44.87,8.7 -58.8,19.76 -97.17,0.93 -22.03,-15.1 -10.63,-4.74 -27.18,-23.13l-0.48 -51.03c26.68,-10.13 55.16,-19.36 75.6,-26.38l-1.97 -0.18 6.43 -60.61c-33.15,-18.85 -45.98,-31.72 -86.35,-33.56 -42.8,-1.97 -68.26,3.56 -99.03,21.9l6.43 70.48z"/>
   <path class="fil14" d="M3418.28 5702.95c46.93,22.87 77.4,67.33 135.99,93.05 60.25,26.46 151.03,19.39 179.4,-34.57 -33.88,-25.52 -65.48,-23.69 -95.83,-46.29l100.51 -25.23c-24.23,-125.37 -277.32,-64.05 -320.07,13.04z"/>
   <path class="fil3" d="M2535.67 6816.72c40.51,-17.87 22.05,-85.18 135.6,-27.27 9.96,58.79 -23.02,90.98 -45.96,127.91 -62.19,100.06 -46.85,45.48 -90.06,75.19 15.21,17.74 138.83,85.43 174.22,91.8 -7.47,-45.17 -22.33,-13.35 -10.9,-57.69l83.1 -138.76c41.75,-89.15 -51.83,-123.86 -118.04,-145.96 3.79,12.11 36.63,-24.59 -5.4,15.82 -7.26,6.99 -6.85,7.24 -19.95,10.48 -27.61,6.85 -37.88,-0.45 -60.04,-3.17 -70.46,-8.65 -27.24,-10.52 -44.22,21.22l1.66 30.44z"/>
   <path class="fil11" d="M2770.23 5773.82c15.21,25.31 654.79,422.22 725.12,424.07 5.92,-106.32 44.15,-236.16 -4.58,-244.38 -27.93,15.8 -1.62,89.16 -31.25,187.66 -53.88,-12.71 -636.65,-365.65 -679.87,-395.78l-9.43 28.43z"/>
   <path class="fil1" d="M1794.53 6170.72c28.78,67.15 -30.89,91.35 -67.63,125.69 -115.49,107.94 -77.96,49.32 -130.04,66.69 10.39,29.06 46.72,55.45 72.37,77.84 19.29,16.81 51.04,52.16 71.73,54.96 5.35,-37.91 -18.87,-36.37 17.9,-74.76 30.93,-32.28 110.43,-88.01 163.43,-150.61 -22.17,-27.66 -89.28,-98.66 -127.76,-99.81z"/>
   <path class="fil1" d="M5971.88 6562.95c17.93,19.94 36.71,38.66 52.83,59.07 29.97,37.97 15.31,30.06 8.16,74.14 32.58,-7.12 134.88,-87.07 160.06,-110.91 -28.63,-21.31 -40.68,5.25 -78.3,-35.37 -17.54,-18.95 -32.17,-36.8 -47.66,-54.16 -29.68,-33.25 -71.31,-88.22 -98.72,-105.54 -29.16,11.98 -42.59,26.4 -66.55,45.31 -24.43,19.3 -41.7,27.66 -53.98,47.94 57.69,34.9 -4.44,-63.54 124.17,79.52z"/>
   <path class="fil16" d="M2951.85 4654.28c13.83,21.82 490.6,263.66 551.48,295.28 85.58,44.43 41.95,103.96 34.75,230.22l46.57 19.35c9.57,-44.24 5.11,-102.29 6.85,-150.54 2.26,-63.15 8.26,-90.7 -42.78,-116.94l-623.27 -325.95 -12.2 13.92c-1.27,-2.89 -5.01,7.37 -8.59,9.83 66.81,23.48 23.54,-10.7 47.2,24.84z"/>
   <path class="fil3" d="M4042.93 7290.07l13.2 -32.28c34.39,-6.04 -2.89,0.72 35.03,-16.33 -111.02,58.78 -91.24,-145.32 -96.13,-230.84 -27.94,0.36 -53.93,0.87 -81.9,0.26l-54.29 1.65c-2.53,0.46 -5.8,1.69 -7.78,2.13 -1.95,0.44 -6.03,4.94 -7.39,2.68 -1.35,-2.24 -4.95,1.66 -7.19,2.96 20.12,27.46 4.1,6.9 36.72,27.77 8.5,54.29 1.78,162.77 21.88,203.28 18.93,38.19 97.74,65.9 147.87,38.71z"/>
   <path class="fil11" d="M4263.66 5134.05l4.11 -48c33.15,-20.66 857.48,-282.01 907.68,-284.41 -2.65,-1.57 -2.66,-5.12 -21.35,-9.78 -13.47,-3.35 -17.65,-2.62 -29.2,-4.13l0.95 -14.13 -747.52 231.17c-33.54,11.17 -94.22,27.85 -124.15,41.96 -20.48,9.65 -37.57,19.79 -33.44,47.22 3.57,23.7 25.87,30.43 42.93,40.09z"/>
   <path class="fil7" d="M3866.98 3921.38c62.29,-103.84 -56.98,-261.35 -143.35,-126.72 -25.39,39.59 -28.62,122.6 11.2,155.69 40.44,33.61 113.19,2.64 132.15,-28.97z"/>
   <path class="fil7" d="M4434.44 3891.61c31.72,119.53 196.59,87.5 172.8,-73.65 -7.23,-48.93 -60.06,-95.79 -116.33,-61.5 -30.09,18.33 -72.69,74 -56.47,135.14z"/>
   <path class="fil3" d="M4127.13 7219.8l39.59 50.48 89.3 8.29c-20.65,-71.41 -27.67,-136.22 -11.28,-218.47l-0.28 -55.91c-46.63,-3.99 -121.05,-11.61 -157.05,6.88 8.71,15.61 25.9,15.57 35.73,40.1 5.7,14.21 18.57,139.13 3.99,168.64z"/>
   <path class="fil17" d="M3839.49 4798.7l-40.06 -0.47c176.13,129.54 136.83,117.21 359.66,33.6l400.79 -137.35c-10.96,-6.71 -4.77,-6.77 -26.01,-10.1 -11.83,-1.86 -27.45,-0.43 -39.7,0.22 -112.65,31.89 -230.76,72.66 -336.39,108.7 -57.23,19.54 -111.9,39.61 -168.59,54.77 -73.3,19.59 -99.75,-49.38 -149.7,-49.37z"/>
   <path class="fil5" d="M3969.43 5279.27l14.5 -71.6c14.07,8.79 10.54,0.57 24.44,33.43 6.81,16.1 3.02,17.3 16,35.7 91.75,-41.92 15.63,-210.93 -46.29,-237.7 -43.52,46.7 -86.97,125.48 -61.48,191.16 21.34,54.98 42.08,46.61 52.81,49.01z"/>
   <path class="fil5" d="M4005.85 5587.08l36 -66.8c1.27,1.95 2.89,2.87 3.37,6.66 0.49,3.82 2.74,5.17 3.37,6.93l12.11 62.11c105.91,-24.43 60.02,-171 19.21,-237.58 -33.22,7.56 -72.61,59.38 -90.83,89.91 -18.79,31.5 -28.54,75.5 -11.95,110 16.64,34.65 3.87,15.33 28.72,28.76z"/>
   <path class="fil5" d="M3817.33 5627.82l-18.04 -78.13c48.29,17.9 29.76,33.05 75.94,34.74 -0.17,-108.8 -81.1,-163.21 -182.6,-174.27 -1.21,112.3 10.1,201.54 124.7,217.66z"/>
   <path class="fil14" d="M4133.74 5599.43l-2.1 18.89 19.71 -0.48 59.13 -10.2c-18.08,51.09 -31.78,26.52 -38.9,70.48 101.89,36.94 175.21,-91.48 192.57,-154.34 -106.43,-13.93 -200.67,-8.08 -230.42,75.65z"/>
   <path class="fil18" d="M3533.83 6399.64c12.8,19.79 16.19,20.77 22.15,45.94l51.9 -17.73c0,33.4 0.84,31.52 9.26,54.35l35.66 -10.4c-26.61,-23.93 -27.24,-16.51 -26.64,-61.88 0.4,-30.22 7.32,-54.05 9.37,-86.44 31.81,5.81 30.74,10.45 53.17,16.05 36.92,9.22 33.83,-0.78 38.72,-4.19 -12.61,-36.18 -53.02,-39.51 -93.25,-55.58l12.61 -45.43 24.88 8.34 -3.06 -18.88 24.81 1.88 -47.11 -38.53c-4.02,-75.59 31.07,-164.77 -10.69,-166.75 -31.17,11.21 -12.69,-10.64 -21.13,35.87l-30.52 360.71 -50.12 -17.33z"/>
   <path class="fil18" d="M4002.17 6480.37c14.45,-7.12 24.97,-22.19 48.47,-27.28l44.48 -6.96c24.89,-7.87 11.51,-12.43 49.54,-9.02 -17.96,-32.24 25.63,-31.41 -27.11,-24.55l-108.59 31.08 17.37 -247.03c1.18,-13.23 4.75,-31.29 4.59,-39.63l-6.55 -26.51c-37.9,17.54 -30.8,19.73 -35.79,66.07 -121.4,12.69 -109.94,25.02 -111.61,64.01l109.54 -26.36c1.38,103.73 -67.64,35.5 -81.18,91.87 28.85,22.81 33.85,7.11 71.65,-0.04 2.74,84.54 -20.01,96.06 25.19,154.34z"/>
   <path class="fil19" d="M3953.26 2465.05c-30.98,16.38 -7.17,-26.44 -24.32,12.32 10.7,-29.67 -8.32,-25.11 24.32,-12.32zm164.8 -222.86l-1.13 80.11c-43.02,20.08 -34.56,5.3 -83.31,-37.46l-37.24 -5.94c29.4,30.4 38.43,14.59 52.25,66.89l-29.77 22.16c-33.57,22.43 -47.9,30.7 -72.88,67.73 -55.74,-17.93 -71.34,-33.02 -134.83,-34.36l-27.41 11.57 17.78 9.09c16.37,4.34 11.47,2.97 28.3,5.13 80.73,10.35 86.39,-4.26 88.14,57.54l-23.15 9.36c5.25,38.65 7.75,94.09 18.7,127.1 14.69,-13.56 10.42,8.93 16.8,-33.44 1.72,-11.46 -2.19,-42.34 -3.16,-54.69 -2.47,1.85 19.65,-46.83 26.09,-67.91 33.39,-23.58 26.61,-30.91 47.35,-49.69 47.01,-42.57 83.34,-45.48 142.69,-69.03 44.94,-17.84 40.64,-28.11 84.78,5.59 28.54,-20.03 35.76,27.05 21.69,-27.91l-98.45 -6.94c-1.35,-23.82 -9.75,-84.03 -33.25,-74.87z"/>
   <path class="fil10" d="M6144.15 2577.11l35.79 16.93c24.59,9.76 13.78,-8.54 25.24,10.81 45.75,-17.61 86.46,-12.3 118.81,-32.94 29.57,-18.86 61.35,-45.28 72.16,-68.77 -8.52,-38.46 -32.71,-63.67 -66.92,-74.46 -24.89,10.61 -81.94,56.57 -93.29,74 -31.14,47.78 -5.94,85.48 -91.79,74.42z"/>
   <path class="fil14" d="M3527.9 5900.28c15.35,59.21 146.7,119.18 208.58,55.54l-63.44 -33.76 65.57 -19.65c-4.48,-13.13 -5.59,-26.6 -37.46,-40.02 -56.69,-23.87 -124.2,6.13 -173.24,37.89z"/>
   <path class="fil17" d="M2889.01 4396.49c36.18,10.61 109.82,46.49 147.74,81.33 1.46,1.35 3.97,3.89 5.94,5.85 43.45,2.27 151.32,90.24 201.69,90.84 -14.33,-25.49 -86.46,-59.68 -114.14,-75.68l-362.71 -218.45 6.95 -45.26c-11.06,-9.49 17.49,-12.42 -27.51,-7.91 -13.2,35.11 -14.9,41.6 -10.11,82.5 22.72,11.03 50.93,27.35 76.2,42.26 22.12,13.06 48.81,33.69 75.94,44.51z"/>
   <path class="fil20" d="M2308.91 5525.5c24.87,-39.51 31.53,-68.43 10.25,-123.03 -13.29,-34.15 -42.98,-80.02 -82.44,-59.64 -47.9,24.72 -37.28,199.98 72.19,182.67z"/>
   <path class="fil7" d="M5641.68 5586.68c49.74,5.33 74.37,-21.15 88.37,-64.34 17.04,-52.62 5.24,-81.67 -13.9,-118.12 -110.11,-16.78 -115.17,115.64 -74.47,182.46z"/>
   <path class="fil19" d="M4447.65 2485.98c-12.45,21.01 0.54,14.08 -18.03,23.49 7.36,50.52 12.3,107.35 -5.19,156.31 -11.02,30.85 -44.54,53.9 -57.53,96.54l36.64 7.74c3.52,0.66 14.76,10.67 20.05,16.85 48.22,-23.52 7.35,10.31 26.52,-30.26 -63.39,-1.48 -37.96,-17.06 -10.95,-61.62 15.36,-25.33 19.73,-37.46 25.4,-74.54 39.04,1.16 103.17,7.98 122.93,-28.3 40.36,-28.68 24.85,-2.97 54.87,-51.99 -79.2,53.29 -63.52,64.42 -172.74,46.19 2.69,-37.4 2.66,-45.84 33.97,-57.88 25.65,-9.86 27.97,-6.4 54.23,-5.2l-35.81 -23.04c28.33,-18.75 38.46,-30.31 40.08,-73.86 -23.1,28.35 -20.81,44.76 -34.91,61.11 -14.53,16.88 -36.96,25.32 -69.76,25.16l-9.76 -26.71z"/>
   <path class="fil19" d="M3962.46 2753.02c31.83,25.7 76.57,60.85 124.2,67.87l-12.96 57.28 13.7 3.83 17.6 -39.27 52.64 1.85c14.02,-30.24 52.05,-5.5 76.26,-2.82 40.36,-11.04 78.34,-30.57 105.19,-30.89 15.03,33.37 7.51,27.72 32.62,47.92 18.81,15.11 40.59,27.86 61.48,38.12 5.67,-14.44 -16.06,-7.69 23.74,-14.07l-60.17 -39.42c-12.87,-14.11 -24.64,-28.03 -36.26,-44.06 12.72,-53.78 8.68,-9.38 -21.35,-27.73 -16.15,5.97 -34.31,16.2 -50.12,23.89l-47.34 15.17c-32.42,2.83 -101.87,2.13 -134,-2.03 -3.25,12.15 -3.74,-3.03 -25.13,-12.73 -22.88,-10.39 -16.33,-2.17 -44.42,-20.04 -12.84,-8.17 -26.63,-18.28 -36.18,-27.22 -21.66,-20.29 -5.89,-11.57 -33.76,-30.54l-5.74 34.89z"/>
   <path class="fil21" d="M3070.91 4400.17c18.52,23.26 328.3,209.1 363.93,220.37l47.36 3.52c-33.48,-28.85 -72.78,-46.94 -109.41,-71.01 -40.08,-26.33 -73.03,-47.67 -113.33,-72.31 -75.63,-46.25 -150.69,-90.02 -224.16,-138.29 -7.8,11.26 -21.3,-10.91 1.2,17.19 0.7,0.87 15.71,11.47 16.42,12.09 16.27,14.61 14.4,4.2 17.99,28.44z"/>
   <path class="fil7" d="M5784.87 5657.76c53.32,12.85 89.48,-35.03 89.56,-90.71 0.08,-47.78 1.35,-57.71 -26.52,-85.06 -77.48,2.38 -93.31,121.72 -63.04,175.77z"/>
   <path class="fil7" d="M2432.25 5569.72c74.46,-33.67 34.45,-193.87 -50.7,-182.92 -31.73,63.15 -12.94,163.49 50.7,182.92z"/>
   <path class="fil14" d="M3404.74 5439.1c12.42,48.93 75.52,122.4 166.85,91.23 -10.55,-27.22 -22.33,-28.34 -45.73,-43.51 32.12,-3.69 40.88,0.72 63.02,-12.34 -40.67,-70.63 -99.56,-59.43 -184.13,-35.38z"/>
   <path class="fil18" d="M3728.38 5168.76l1.19 -31.64c34.37,-2.57 78.08,25.2 138.09,29.29l7.09 -32.46c-59.91,-9.89 -83.29,-21.07 -134.9,-39.89l-0.76 -134.35c-18.44,11.97 -19.48,-26.13 -20.13,107.45l9.79 -130.26c-4.79,-47.04 0.57,-24.46 -17.55,-41.89l-18.96 255.86 36.14 17.9z"/>
   <path class="fil5" d="M3302.91 5853.99c17.02,23.4 45.81,37.83 79.98,48.74 54.28,17.34 54.61,1.77 101.61,-14.25 -19.21,-36.25 -16.39,-13.93 -51.34,-34.49l46.85 -25.21c-22.95,-32.06 -48.3,-43.31 -99.83,-27.03 -31.75,10.04 -63.86,28.63 -77.28,52.24z"/>
   <path class="fil14" d="M3980.3 5779.02l57.24 -9.9c-20.22,40.17 -21.83,13.66 -24.47,56.33 105.38,2.69 139.74,-94.57 136.15,-124.01 -79.37,-6.45 -162.63,-4.14 -168.91,77.58z"/>
   <path class="fil14" d="M4398.13 5444.24c51.21,-2.06 9.01,-10.65 59.83,-22.73l-23.51 57.17c84.52,-1.86 105.63,-63.65 106.99,-150.37 -69.06,-4.21 -149.15,37.62 -143.31,115.93z"/>
   <path class="fil5" d="M3560.39 5361.02l-15.35 -58.61c28.11,13.36 25.97,25.69 58.52,29.43 7.08,-82.83 -68.28,-119.18 -132.48,-133.01 -7.38,79.29 7.39,167.87 89.32,162.19z"/>
   <path class="fil22" d="M3717.11 4742.72c1.17,-0.35 1.17,-3.6 15.7,-1.29 4.59,0.72 10.83,4.47 30.13,7.29 -34.89,-48.33 -499.24,-314.47 -517.17,-319.89 22.25,31.17 434.88,296.87 471.34,313.89z"/>
   <path class="fil5" d="M4153.83 5282.99l-9.78 35.72 30.59 -3.62c48.98,-20.81 74.11,-72.59 69.41,-144.71 -77.64,3.28 -143.72,35.7 -144.37,118.39 28.74,-5.67 24.52,-5.17 45.02,-19.94 16.59,14.44 2.74,-10.91 9.13,14.16z"/>
   <path class="fil5" d="M3894.78 5470.96l14.86 -46.6c40.08,26.54 2.05,19.69 49.36,25.65 11.19,-90.43 -30.16,-121.48 -82.73,-157.62 -21.05,22.95 -32.84,59.87 -31.87,99.13 1.31,52.61 24.52,58.22 50.38,79.44z"/>
   <path class="fil14" d="M4365.93 5604.06c11.12,8.78 -3.45,12.32 56.65,6.58 -13.14,22.66 -19.28,24.3 -34.14,45.5 85.77,21.63 138.56,-49.37 146.64,-115.5 -83.79,-6.53 -148.36,-3.38 -169.15,63.42z"/>
   <path class="fil23" d="M3914.95 4021.16c61.33,-11.76 71.61,-34.15 146.3,-35.99l-15.27 29.66c-1.16,2.67 -22.31,30.11 -7.26,61.24 18.74,38.74 -11.33,-9.52 9.65,11.6 38.58,38.82 -24.5,-2.23 13.25,6.87l-6.43 -70.48c30.76,-18.33 56.22,-23.87 99.03,-21.9 40.37,1.85 53.2,14.71 86.35,33.56l-6.43 60.61c12.29,-9.03 26.12,1.49 19.7,-45.92 -2.15,-15.97 -14.75,-31.87 -23.39,-53.93l126.3 43.21c-47.95,-73.73 -267.25,-81.01 -341.81,-62.69 -49.02,12.05 -76.43,13.59 -99.99,44.17z"/>
   <path class="fil14" d="M4155.39 5447.31l60.95 -28.06 -20.63 59.52c76.93,-8.87 110.85,-67.77 103.83,-150.78 -79.88,1.74 -144.83,38.31 -144.15,119.33z"/>
   <path class="fil14" d="M3767.15 5363.09l-11.87 -54.17 54.09 27.37c5.67,-93.11 -54.61,-113.63 -126.63,-138.83 -3.33,85.31 -1.21,162.45 84.41,165.64z"/>
   <path class="fil5" d="M3205.72 5390.73c45.15,42.45 53.26,78.25 144.87,57.2 -5.62,-21.06 1.74,-18.28 -38.16,-39.43l50.86 -29.85c-21.03,-22.93 -37.57,-40.19 -79.79,-42.32 -19.11,-0.96 -40.26,2.47 -56.06,7.01l-40.34 20.54 18.62 26.85z"/>
   <path class="fil5" d="M3239.19 5591.68l-33.3 40.16 62.71 48.65c41.35,-3.17 93.57,11.82 115.92,-30.13l-53.95 -20.94c22.24,-14.93 36.09,-9.54 49.25,-34.6 -20.98,-15.21 -40.15,-25 -67.49,-23.59l-54.15 16.4c-22.35,6.76 11.28,1.42 -18.99,4.06z"/>
   <path class="fil1" d="M4210.87 3030.68l122.54 16.9c12.04,-64.11 -41.31,-94.76 -102.68,-102.58l-65.79 1.72c-3.43,57.09 6.43,60.81 45.93,83.96z"/>
   <path class="fil7" d="M5501.58 5544.26l-8.45 19.79c3.3,56.09 -6.09,74.14 40.05,95.57 52.19,-29.29 56.95,-85.93 53.53,-156.47 -19.83,-15.46 -13.35,-13.54 -35,-24.91 -35.87,17.97 -36.54,21.82 -50.12,66.02z"/>
   <path class="fil20" d="M2173.07 5635.48c62.62,-44.28 67.12,-151.31 0,-178.54 -65,29.6 -62.79,142.73 0,178.54z"/>
   <path class="fil12" d="M4339.15 2771.63c30.03,18.35 34.07,-26.05 21.35,27.73 11.62,16.03 23.4,29.95 36.26,44.06l60.17 39.42c27.26,14.01 39.82,4.17 44.06,2.06 11.6,-41.69 13.01,1.2 -1.38,-43.38 -18.97,-16.24 -24.93,-19.83 -39,-51.42 29.99,-18.55 7.76,-1.91 34.43,-9.97l37.83 -21.44 -82.75 -2.03c-19.17,40.57 21.7,6.74 -26.52,30.26 -5.3,-6.18 -16.53,-16.19 -20.05,-16.85l-36.64 -7.74c-19.55,-10.74 26.64,-9.2 -27.77,-9.2l0 18.51z"/>
   <path class="fil24" d="M3209.76 5431.11l-4.04 -40.38 -18.62 -26.85 40.34 -20.54c15.81,-4.54 36.95,-7.97 56.06,-7.01 42.21,2.13 58.76,19.4 79.79,42.32l28.97 3.21c-50.98,-110.46 -182.89,-97.74 -229.65,-64.74 -4.36,42.98 -0.44,96.06 47.13,113.99z"/>
   <path class="fil12" d="M3830.33 2498.83l64.5 -4.85 23.15 -9.36c-1.75,-61.8 -7.41,-47.19 -88.14,-57.54 -16.83,-2.15 -11.94,-0.79 -28.3,-5.13l-17.78 -9.09c-9.93,15.38 -56.84,12.26 -70.94,70.18 16.96,-9.46 3.87,-6.15 25.58,-9.78 32.84,-5.48 76.69,6.53 91.93,25.55z"/>
   <path class="fil25" d="M3788.04 4834.99c-8.29,-18.97 21.07,-10.05 -28.12,-18.39 0,-45.45 -5.54,1.3 13.54,-12.64 -46.79,-31.68 -92.72,-59.1 -144.93,-90.75 -43.75,-26.52 -99.31,-68.3 -146.34,-89.16l-47.36 -3.52c19.95,24.4 139.3,91.28 173.65,113.12 46.4,29.51 138.35,90.92 179.55,101.33z"/>
   <path class="fil12" d="M4087.4 2882c-19.35,35.33 0.46,78.24 30.72,110.33 27,28.62 9.97,13.99 39.74,22.27 -4.76,-36.96 -10.29,-48.26 3.24,-77.66 3.04,-10.74 6.73,-22.85 6.87,-23.19 -8.24,-41.14 -12.97,-32.76 -4.58,-77.31l-5.74 8.13 -52.64 -1.85 -17.6 39.27z"/>
   <path class="fil12" d="M4557.82 2523.32c-26.26,-1.19 -28.58,-4.66 -54.23,5.2 -31.31,12.04 -31.28,20.48 -33.97,57.88 109.22,18.22 93.54,7.09 172.74,-46.19 10.4,-10.82 8.07,-8.54 13.68,-29.65l-25.69 -4.36 -72.53 17.12z"/>
   <path class="fil26" d="M4127.13 7219.8c-22.43,20.19 -7.98,9.87 -35.98,21.66 -37.92,17.06 -0.63,10.29 -35.03,16.33l-13.2 32.28c51.35,-6.92 54.69,-21.28 96.42,-37.11l5.35 33.77c43.82,4.74 116.17,9.81 155.12,-7.24 -14.29,-49.74 -44.76,20.37 -43.58,-92.35 0.41,-37.97 2.87,-100.43 -11.5,-127.05 -16.39,82.25 -9.37,147.07 11.28,218.47l-89.3 -8.29 -39.59 -50.48z"/>
   <path class="fil12" d="M4020.74 2216.74c2.74,11.81 12.29,44.85 12.88,68.09 48.75,42.77 40.29,57.55 83.31,37.46l1.13 -80.11c-23.28,0.39 -8.39,11.78 -27,-8.22 -15.33,-16.44 -8.26,-16.74 -12.87,-31.1 -8.04,-12.77 -2.54,-10.59 -21.19,-10.13l-48.51 -6.44 12.26 30.45z"/>
   <path class="fil12" d="M3838.37 2720.19c-9.33,14.37 -20.43,29.16 -32.52,44.64l-8.14 49.04c59.82,-18.88 0.2,0.57 39.3,-25.63 12.82,-8.6 -19.69,-6.58 20.94,-9.31 70.4,-4.72 12.48,-1.86 36.77,11.33 -3.78,-15.97 -4.36,-6.23 10.09,-8.52l-0.04 -28.61 28.61 -6.04 -1.54 -50.91 -41.13 0.79 -52.35 23.22z"/>
   <path class="fil1" d="M1960.17 6231.81c22.33,-16.62 29.81,-21.15 43.91,-44.58 -14.96,-23.45 -48.54,-55.1 -80.93,-67.38 -17.94,18.52 -23.99,26.41 -45.71,39.07 16.53,24.44 51.46,59.74 82.73,72.89z"/>
   <path class="fil27" d="M3728.38 5168.76c8.22,6.56 12.55,10.69 20.32,16.5 2.05,1.53 8.33,6.29 10.48,7.71 20.52,13.66 -0.74,0.3 17.65,10.05l90.78 16.54 0.06 -53.15c-60.01,-4.09 -103.72,-31.86 -138.09,-29.29l-1.19 31.64z"/>
   <path class="fil28" d="M4307.57 2235.91c12.02,69.91 26.92,98.26 -51.74,91.41 -9.51,11.38 -7.24,29.1 -9.26,36.15l42.5 0.78c39.06,-61.54 -5.26,-34.36 44.44,-39.93l23.97 -25.67c33.68,-30.92 23.28,-13.56 41.06,-63.8 14.13,-39.94 -7.05,-22.51 24.52,-21.79 -12.45,-33.28 10.39,-15.31 -26.35,-32.44 -10.3,12.17 -9.82,-21.98 -15.62,63.33 -20.48,17.65 -25.37,20.49 -45.06,43.08 -14.97,-53.3 -15.67,-37.89 -28.47,-51.13z"/>
   <path class="fil29" d="M4079.91 2972.13c33.76,36.26 14.55,26.93 9.25,39.65 -34.85,-14.19 -8.4,13.02 -19.43,-17.08 -11.56,-31.52 9.06,-21.04 10.18,-22.57zm-58.26 48.37l189.22 10.19c-39.5,-23.16 -49.36,-26.87 -45.93,-83.96l-3.84 -9.78c-13.52,29.4 -7.99,40.69 -3.24,77.66 -29.77,-8.28 -12.74,6.35 -39.74,-22.27 -30.26,-32.09 -50.07,-74.99 -30.72,-110.33l-13.7 -3.83c-3.85,87.54 -2.65,88.41 -52.05,142.32z"/>
   <path class="fil5" d="M4577.89 5641.09c11.19,33.72 -7.67,3.53 25.67,27.77 -20.66,12.88 -16.2,5.61 -22.56,27.89 65.04,18.83 83.25,-15.84 116.26,-48.27 -32.36,-23.21 -84.93,-42.07 -119.37,-7.39z"/>
   <path class="fil30" d="M2878.02 4767.34c-9.99,-69.41 -61.94,-101.71 -29.22,-149.77l103.06 36.71c-23.66,-35.54 19.61,-1.35 -47.2,-24.84 3.59,-2.46 7.33,-12.72 8.59,-9.83l12.2 -13.92 -85 -37.28 1.06 7.08c1.17,19.3 8.41,-33.4 0.94,18.67 -4.43,30.82 -23,45.82 -50.33,88 10.28,-32.51 3.28,-12.7 35.57,-19.84 3.83,29.88 4.47,31.08 14.02,58.85 17.33,50.42 12.33,38.94 36.31,46.17z"/>
   <path class="fil31" d="M4504.6 5797.81c9.09,29.97 -10.99,10 26.2,30.56 -19.68,10.08 -17.09,2.2 -23.33,24.8 39.52,18.83 79.56,12.03 106.65,-26.95 -34.82,-41.19 -60.41,-43.54 -109.52,-28.41z"/>
   <path class="fil24" d="M3249.96 5690.69l18.63 -10.2 -62.71 -48.65 33.3 -40.16 -20.19 3.81 0.02 -18.03c-35,11.76 -49.63,18.38 -65.63,45.12 11.16,38.13 57.5,63.37 96.58,68.1z"/>
   <path class="fil32" d="M3334.73 6857.1c25.41,-10.02 51.41,0.01 88.02,10.23 5.14,50.23 -5.93,29.74 -18.56,36.58 -0.16,6.33 21.83,-14.7 0,25.18 -26.07,-46.64 -36.9,-57.47 -69.46,-71.99zm-4.65 5.91c22.46,26.37 22.13,1.38 43.57,70.09l54.6 10.3 20.54 -80.44c-26.34,-16.24 -79.28,-29.06 -116.8,-26.54l-37.22 8.63c45.95,10.7 27.98,13.13 35.3,17.96z"/>
   <path class="fil33" d="M4570.55 2242.56c36.46,43.54 90.65,9.19 135.96,-3.94 -12.74,59.78 -18.36,18.71 -28.86,71.94 12.93,-6.74 25.15,-7.17 43.41,-45.09 10.59,-21.98 13.59,-44.15 13.87,-75.8 -66.18,15.41 12.37,43.87 -164.39,52.88z"/>
   <path class="fil34" d="M2793.07 4235.66c35.29,27.79 152.87,103.37 201.1,118.09 -21.2,-42.35 -25.39,-13.22 -44.62,-57.29 -31.75,0.65 -15.38,3.84 -39.22,-11.52 -60.87,-39.23 -104.91,-47.6 -88.06,-77.36l0 -7.7c-11.44,-8.03 -10.29,-3.17 -24.19,-19.67 4.68,38.29 10.39,26.39 -5.01,55.45z"/>
   <path class="fil35" d="M5878.22 6391.23c27.87,-8.81 33.49,-14.55 53.71,-38.21l-31.07 -52.69 -30.73 13.27c-4.22,47.9 -30.95,31.15 -38.63,53.88 -10.5,31.09 38.71,24.13 46.72,23.75z"/>
   <path class="fil28" d="M4078.19 2202.87c4.61,14.37 -2.46,14.66 12.87,31.1 18.62,20 3.73,8.61 27,8.22 6.22,-29.33 -0.07,-42.4 -13.25,-63.03 4.57,-9.83 8.13,-26.13 16.89,-42.26 0.6,-1.11 22.84,-30.47 23.6,-31.37 31.78,-36.96 43.97,-18.03 50.13,-69.52 -44.5,31.24 -92.52,65.25 -100.38,115.46 -6.59,42.13 13.1,48.31 -16.87,51.4z"/>
   <path class="fil19" d="M4407.9 2479.29c3.35,-1.2 7.8,-5.3 10.29,-2.87 2.56,2.49 6.98,-2.63 10.16,-4.12 3.29,-1.55 6.92,-3.2 10.01,-5.38 -20.65,-41.52 -22.8,-38.53 -51.6,-65.6 16.07,-32.2 56.6,-41.41 44.19,-83.94 -45.06,22.53 8.87,6.19 -68.74,59.26l-19.67 15.44c26.89,27.43 17.95,8.29 40.39,39.72 12.13,17 20.02,29.78 24.97,47.5z"/>
   <path class="fil28" d="M3822.25 2526.46l65.24 -1.81c31.18,72.96 -20.83,82.06 18.64,112.72l-6.64 30.31c19.11,-7.08 9.23,17.59 18.22,-17.69 8.78,41.44 8.91,21.28 15.09,27.37 3.87,-10.69 13.52,-11.1 7.57,-38.54 -8.53,-39.33 -11.14,-18.8 -26.85,-17.72 -10.94,-33.01 -13.45,-88.45 -18.7,-127.1l-64.5 4.85 -8.08 27.63z"/>
   <path class="fil34" d="M3793 4890.32c12.26,24.33 -5.07,14.44 55.5,27.4 30.87,-32.42 15.58,-25.76 53.74,-18.38 21.74,4.21 20.91,1.3 22.99,0.64 -31.3,-21.92 -31.46,-27.41 -66.68,-38.47l-28.58 -2.5c-6.56,39.63 15.87,13.39 -36.97,31.31z"/>
   <path class="fil28" d="M4428.03 3105.56l3.81 27.51c-74.13,-19.03 -45.24,-48.35 -97.69,-77.83 6.83,43.38 9.34,48.56 44.22,74.85l92.23 31.4c-13,-48.62 -2.56,-37.81 -42.57,-55.93z"/>
   <path class="fil36" d="M2994.17 4353.76c19.33,22.73 40.42,33.22 76.74,46.41 -3.59,-24.25 -1.72,-13.84 -17.99,-28.44 -0.71,-0.62 -15.72,-11.23 -16.42,-12.09 -22.5,-28.09 -9,-5.93 -1.2,-17.19 -22.99,-19.76 -49.46,-38.53 -85.75,-45.97 19.23,44.07 23.42,14.93 44.62,57.29z"/>
   <path class="fil28" d="M3894.73 2790.24c-24.29,-13.19 33.63,-16.05 -36.77,-11.33 -40.64,2.74 -8.12,0.71 -20.94,9.31 -39.11,26.2 20.52,6.75 -39.3,25.63l8.14 -49.04c-17.46,5.02 -16.51,-7.97 -25.64,53.04 31.2,31.93 -5.77,15.19 31.74,38.55 33.27,-64.76 44.28,-61.32 82.77,-66.17z"/>
   <path class="fil28" d="M4187.35 2035.31c25.93,-24.89 16.72,-29.13 31.41,-49.86 28.35,22.11 3.04,18.79 39.46,41.53 -0.73,-31.11 -2.15,-27.89 -19.26,-53.96 -19.96,-30.43 -17.02,-24.28 -52.33,-30.78 1.5,46.65 8.47,44.7 0.72,93.07z"/>
   <path class="fil28" d="M3880.7 2672.85l10.02 24.12 41.13 -0.79 1.54 50.91 26.14 -2.09 2.93 8.02 5.74 -34.89c0.01,-0.37 5.76,-19.11 -6.13,-32.89 -15.89,-18.4 3.62,-18.93 -29.26,-7.9l-20.93 7.8 -12.39 -17.47 -18.78 5.18z"/>
   <path class="fil23" d="M3407 4671.22l-39.62 -30.31c-33.59,-21.71 -87.78,-59.14 -123,-66.4 -2.26,34.72 -6.33,17.93 27.51,34.92 14.52,7.29 24.3,8.02 43.74,18.17 40.36,21.07 36.6,31.93 91.37,43.62z"/>
   <path class="fil37" d="M2949.55 4296.47c-11.25,-27.09 -99.94,-70.2 -127.28,-88.89 -16.85,29.76 27.19,38.13 88.06,77.36 23.83,15.36 7.47,12.17 39.22,11.52z"/>
   <path class="fil38" d="M3334.73 6857.1c32.56,14.52 43.38,25.35 69.46,71.99 21.83,-39.88 -0.16,-18.85 0,-25.18 12.63,-6.84 23.7,13.65 18.56,-36.58 -36.61,-10.22 -62.61,-20.25 -88.02,-10.23z"/>
   <path class="fil28" d="M4167.97 2913.76c12.65,-5.76 16.94,-5.11 30.13,-9.3l-9.09 -49.87c5.88,-4.41 3.03,-5.43 20.61,-10.09 0.25,-0.06 22.89,-2.54 24.28,-2.74 -24.21,-2.68 -62.24,-27.42 -76.26,2.82l5.74 -8.13c-8.39,44.55 -3.66,36.17 4.58,77.31z"/>
   <path class="fil34" d="M3867.6 5219.56l-90.78 -16.54c11.14,24 18.62,27.18 33.44,48.12l47.46 2.07 9.87 -33.65z"/>
   <path class="fil36" d="M3799.43 4798.23l40.06 0.47c-22.15,-28.73 -46.63,-43.18 -76.55,-49.99 -19.3,-2.82 -25.54,-6.57 -30.13,-7.29 -14.53,-2.31 -14.53,0.94 -15.7,1.29 20.53,18.3 59.11,43.33 82.33,55.52z"/>
   <path class="fil28" d="M3624.6 2700.83c-24.18,-26.73 -33,-18.41 -72.31,-16.67 -12.2,-14.9 -11.96,23.78 -9.5,-29.06 -29.43,16.72 -39.02,22.03 -34.54,58.31 70.74,-16.41 43.76,-17.01 116.35,-12.57z"/>
   <path class="fil28" d="M3719.29 2615.31l35.09 -2.78c28.15,-53.02 38.63,-45.81 75.55,-92.57 -28.65,3.79 -88.19,59.32 -97.15,71.83 -9.04,12.65 -3.69,6.1 -13.49,23.52z"/>
   <path class="fil19" d="M3885.42 3099.6l-34.54 2.84 4.33 -78.43c-30.08,7.64 -8.96,-0.86 -15.98,14.44 -8.06,45.87 -9.11,80.96 30.63,106.22l15.56 -45.07z"/>
   <path class="fil19" d="M4430.95 2317.38l25.09 -2.89c13.41,-51.38 25.39,-26.19 51.34,-63.15 -43.88,10.43 -46.42,6.66 -61.83,37.61l-7.85 -42.99c-0.86,-2.21 -3.11,-5.04 -3.9,-6.79 -0.81,-1.76 -2.98,-4.33 -4.61,-6.39l1.77 84.6z"/>
   <path class="fil25" d="M5878.22 6391.23c-8,0.38 -57.21,7.35 -46.72,-23.75 7.68,-22.73 34.41,-5.98 38.63,-53.88 -20.83,13.65 -49.28,35.96 -65.29,51.55l43.07 48.31c25.69,-9.89 16.4,-4.39 30.31,-22.24z"/>
   <path class="fil19" d="M4289.07 2364.24c9.76,4.95 30.25,15 58.3,23.61 -0.8,-3.61 -2.41,-12.08 -3.07,-10.64 -0.64,1.34 -2.29,-7.03 -3.09,-9.89l-7.7 -43.01c-49.7,5.56 -5.38,-21.61 -44.44,39.93z"/>
   <path class="fil23" d="M4188.17 4197.04l-17.28 -63.11 53.4 -14.9 11.82 -22.53c-20.44,7.02 -48.93,16.26 -75.6,26.38l0.48 51.03c16.55,18.39 5.15,8.03 27.18,23.13z"/>
   <path class="fil36" d="M4059.82 4192.89l45.47 -25.09 2.87 -53.52c-37.67,-19.11 -0.91,-22.96 -46.54,-19.76 17.59,19.95 16.71,12.5 29.11,37.76 -8.24,31.05 -15.02,34.58 -30.92,60.6z"/>
   <path class="fil28" d="M4020.74 2216.74l-12.26 -30.45 48.51 6.44 -29.79 -19.57c-2.6,-0.92 -4.98,-1.98 -7.69,-2.56 -59.85,-12.94 -29.46,3.32 -37.62,8.56 9.19,45.15 -3.24,26.46 38.84,37.58z"/>
   <path class="fil39" d="M4167.97 2913.76c-0.13,0.34 -3.83,12.44 -6.87,23.19l3.84 9.78 65.79 -1.72c-11.94,-12.78 -28.95,-24.51 -32.63,-40.54 -13.19,4.19 -17.48,3.53 -30.13,9.3z"/>
   <path class="fil23" d="M4285.34 4196.11l45.6 -10.41c-2.52,27.76 -8.72,33.05 -19.11,55.92 0.03,-0.02 36.04,-4.53 33.75,-44.07 -1.4,-24.41 -33.26,-55.82 -60.24,-1.44z"/>
   <path class="fil40" d="M3820.77 2703.18c0,27.76 -7.6,24.26 17.6,17.01l52.35 -23.22 -10.02 -24.12c-21.63,8.87 -34.15,19.11 -59.93,30.33z"/>
   <path class="fil41" d="M3216.3 5576.92c21.5,-4.01 28.38,-7.98 43.74,-14.97 34.92,-15.87 24.97,-4.74 32.67,-31.93 -14.78,-32.89 -2.96,-8.48 -22.8,-20.43l5.74 31.24c-46.31,15.1 -39.24,-4.39 -59.35,36.09z"/>
   <path class="fil23" d="M3042.69 4483.67c-1.97,-1.96 -4.47,-4.5 -5.94,-5.85 -37.93,-34.84 -111.57,-70.72 -147.74,-81.33 20.09,17.32 40.43,28.89 68.79,42.11 34.15,15.92 48.48,28.47 84.89,45.07z"/>
   <path class="fil42" d="M2754.07 4446.22l-34.31 -12.85c-12.44,-1.21 -31.89,2.69 -45.65,4.04 1.22,-31.11 1.41,-58.5 -12.44,-79.57l3.04 86.7 89.36 1.69z"/>
   <path class="fil34" d="M3929.7 4196.76l2.28 -37.35 44.72 4.04 -24.83 -24.78c-12.53,5.63 -28.44,11 -33.95,19.19 -26.92,40.02 9.86,37.69 11.78,38.91z"/>
   <path class="fil36" d="M2798.08 4180.21c13.91,16.5 12.76,11.64 24.19,19.67 20.94,-20.47 7.15,-8.9 31.72,-20.38 -11.43,-13.15 2.06,-7.11 -17.49,-16.47 -14.31,-6.86 -11.43,-3.73 -24.73,-6.21 -10.7,11.14 -2.55,-4.37 -13.69,23.4z"/>
   <path class="fil37" d="M3788.04 4834.99l41.94 24.02 28.58 2.5 -85.09 -57.55c-19.09,13.94 -13.54,-32.81 -13.54,12.64 49.19,8.34 19.83,-0.58 28.12,18.39z"/>
   <path class="fil19" d="M4814.68 2768.59c10.52,-4.91 16.5,-5.53 26.72,-12.81 18.28,-13.04 7.59,-3.31 20.59,-22.1l-60.77 -2.26c1.54,2.01 4.17,4.37 5,5.75 16.82,27.94 11.14,5.4 8.46,31.42z"/>
   <path class="fil33" d="M3791.54 2737.65c11.62,9.13 5.32,-12.54 14.32,27.18 12.08,-15.48 23.19,-30.27 32.52,-44.64 -25.2,7.25 -17.6,10.74 -17.6,-17.01 -27.58,24.32 -14.19,-0.61 -29.23,34.47z"/>
   <path class="fil43" d="M4501 2884.89c34.3,2.29 24.46,2.19 35.57,-11.22l-0.77 -18.14 -36.19 -14.03c14.39,44.59 12.98,1.7 1.38,43.38z"/>
   <path class="fil40" d="M3904.82 2781.73c33.16,-3.98 19.88,-11.68 54.71,-36.73l-26.14 2.09 -28.61 6.04 0.04 28.61z"/>
   <path class="fil28" d="M4407.9 2479.29c0.1,0.63 -0.82,18.71 21.72,30.19 18.56,-9.41 5.57,-2.48 18.03,-23.49l-9.3 -19.07c-3.09,2.17 -6.72,3.83 -10.01,5.38 -3.18,1.5 -7.6,6.61 -10.16,4.12 -2.49,-2.43 -6.93,1.67 -10.29,2.87z"/>
   <path class="fil19" d="M4771.82 2715.83l-32.33 -22.27c-2.34,-1.52 -5.62,-3.33 -7.6,-4.59 -2.07,-1.32 -5.3,-3.22 -7.99,-4.79 5.72,14.84 0.79,23.66 21.55,35 42.4,23.15 19.48,0.17 26.37,-3.34z"/>
   <path class="fil44" d="M4089.17 3011.78c5.3,-12.73 24.51,-3.39 -9.25,-39.65 -1.11,1.54 -21.73,-8.94 -10.18,22.57 11.03,30.1 -15.43,2.89 19.43,17.08z"/>
   <path class="fil45" d="M3671.66 6242.67l37.84 8.09c-5.89,-48.3 -2.07,-20.74 -16.09,-25.09l-24.81 -1.88 3.06 18.88z"/>
   <path class="fil46" d="M4774.52 7223.48l40.08 -5.6c-14.52,-34.25 19.56,-16.29 -33.56,-25.13 9.89,18.7 -14.16,15.53 10.06,15.53 -34.22,4.11 -0.79,-0.24 -16.57,15.2z"/>
   <path class="fil47" d="M4174.64 5315.09l-30.59 3.62 9.78 -35.72c-10.79,12.15 -5.65,-4.74 -14.64,19.51 -8.06,21.72 -2.36,7.33 -4.72,26.73 11.93,-0.07 15.38,6.77 40.17,-14.15z"/>
   <path class="fil22" d="M1976.39 6346.72c41.59,1.11 14.98,3.93 22.87,-13.17l-35.92 -15.6 13.04 28.77z"/>
   <path class="fil48" d="M3879.04 2973.67c32.36,-15.06 14.21,2.94 32.04,-29.31l-25.67 2.37 -6.37 26.94z"/>
   <path class="fil49" d="M4630.35 2506.2l25.69 4.36 8.35 -23.91c-27.13,4.8 -20.05,-0.43 -34.05,19.55z"/>
   <path class="fil19" d="M3869.5 2271.68c-7.63,-27.45 -13.48,-21.66 -31.51,-28.19 7.22,26.31 8.35,21.33 31.51,28.19z"/>
   <path class="fil19" d="M3811.16 2401.31l-49.56 -39.72c13.45,25.84 -8.91,4.27 17.52,26.91 14.08,12.06 18.01,9.64 32.04,12.81z"/>
   <path class="fil37" d="M4555.59 4688l29.85 -7.4c5.09,-30.61 7.18,-18.64 -15.38,-9.3 -30.2,12.48 -5.43,-16.89 -14.46,16.7z"/>
   <path class="fil50" d="M3899.49 2667.67l12.39 17.47 20.93 -7.8c-6.18,-6.09 -6.31,14.07 -15.09,-27.37 -9,35.28 0.89,10.61 -18.22,17.69z"/>
   <path class="fil51" d="M4151.35 5617.84l-19.71 0.48 2.1 -18.89c-1.43,2.25 -4.26,2.51 -4.54,6.57 -0.28,4.2 -2.84,5.85 -3.13,7.65 -5.09,32.35 -2.33,-14.36 -0.83,19.26 45.09,-9.11 13.85,-2.49 26.11,-15.07z"/>
   <path class="fil50" d="M4536.57 2873.67l26.73 -6.36c-14.71,-13.71 14.91,-8.5 -27.5,-11.78l0.77 18.14z"/>
   <path class="fil52" d="M4257.1 1591.94l19.32 -4.04c-5.17,-31.57 12.72,-6.93 -13.5,-22.5l-5.82 26.54z"/>
   <path class="fil29" d="M1950.19 6635.46c-33.83,-12.26 -11.41,-7.64 -19.18,7.43l25.59 11.63 -6.42 -19.07z"/>
   <path class="fil53" d="M3953.26 2465.05c-32.65,-12.79 -13.62,-17.35 -24.32,12.32 17.15,-38.76 -6.66,4.06 24.32,-12.32z"/>
  </g>
 </g>
</svg>
